<svg width="32" height="32" viewBox="0 0 32 32" fill="none" xmlns="http://www.w3.org/2000/svg">
<g clip-path="url(#clip0_548_2198)">
<path d="M27.9116 20.0674H8.72062C7.36241 20.0674 6.26562 21.1642 6.26562 22.5167V23.7726H30.3666V22.5167C30.3666 21.1642 29.2641 20.0674 27.9116 20.0674Z" fill="white" fill-opacity="0.7"/>
<path d="M6.26562 30.0986C6.26562 30.4124 6.52004 30.6669 6.83391 30.6669H7.73181C8.04568 30.6669 8.30009 30.4124 8.30009 30.0986V26.5241H28.3321V30.0986C28.3321 30.4124 28.5865 30.6669 28.9004 30.6669H29.7983C30.1122 30.6669 30.3666 30.4124 30.3666 30.0986V24.9102H6.26562V30.0986Z" fill="white" fill-opacity="0.7"/>
<path d="M11.0175 18.931V4.47949H2.21477C1.9009 4.47949 1.64648 4.73391 1.64648 5.04778V28.2679C1.64648 28.5817 1.9009 28.8362 2.21477 28.8362H5.13007V22.5169C5.13007 20.5364 6.73552 18.931 8.71595 18.931H11.0175ZM4.40268 7.21863H8.8353C9.14785 7.21863 9.40358 7.47436 9.40358 7.78691C9.40358 8.10515 9.14785 8.3552 8.8353 8.3552H4.40268C4.09014 8.3552 3.8344 8.10515 3.8344 7.78691C3.8344 7.47436 4.09014 7.21863 4.40268 7.21863ZM4.28333 15.1974C4.28333 15.5099 4.0276 15.7656 3.71505 15.7656C3.39681 15.7656 3.14676 15.5099 3.14676 15.1974V13.214C3.14676 12.9015 3.39681 12.6457 3.71505 12.6457C4.0276 12.6457 4.28333 12.9015 4.28333 13.214V15.1974ZM4.40268 10.8614C4.09014 10.8614 3.8344 10.6056 3.8344 10.2931C3.8344 9.98052 4.09014 9.72478 4.40268 9.72478H8.8353C9.14785 9.72478 9.40358 9.98052 9.40358 10.2931C9.40358 10.6056 9.14785 10.8614 8.8353 10.8614H4.40268Z" fill="white" fill-opacity="0.7"/>
<path d="M21.5331 5.04778C21.5331 4.73391 21.2787 4.47949 20.9649 4.47949H12.1621V18.931H21.5331V5.04778ZM14.1455 15.1974C14.1455 15.5099 13.8897 15.7656 13.5772 15.7656C13.2646 15.7656 13.0089 15.5099 13.0089 15.1974V13.214C13.0089 12.9015 13.2646 12.6457 13.5772 12.6457C13.8897 12.6457 14.1455 12.9015 14.1455 13.214V15.1974ZM18.7826 10.8614H14.35C14.0375 10.8614 13.7817 10.6056 13.7817 10.2931C13.7817 9.98052 14.0375 9.72478 14.35 9.72478H18.7826C19.0952 9.72478 19.3509 9.98052 19.3509 10.2931C19.3509 10.6056 19.0952 10.8614 18.7826 10.8614ZM18.7826 8.3552H14.35C14.0375 8.3552 13.7817 8.10515 13.7817 7.78691C13.7817 7.47436 14.0375 7.21863 14.35 7.21863H18.7826C19.0952 7.21863 19.3509 7.47436 19.3509 7.78691C19.3509 8.10515 19.0952 8.3552 18.7826 8.3552Z" fill="white" fill-opacity="0.7"/>
</g>
<defs>
<clipPath id="clip0_548_2198">
<rect width="32" height="32" fill="white"/>
</clipPath>
</defs>
</svg>
