<svg width="32" height="32" viewBox="0 0 32 32" fill="none" xmlns="http://www.w3.org/2000/svg">
<path d="M25.9939 26.0918H6.02296C4.97634 26.0918 4.125 26.9481 4.125 27.9948V27.9998L27.8919 27.9948C27.8919 26.9481 27.0405 26.0918 25.9939 26.0918Z" fill="white" fill-opacity="0.7"/>
<path d="M28.1306 22.4714H27.1791V21.8003C27.1791 16.3419 22.7421 11.9049 17.2837 11.9049H16.4975V9.37851H18.736C19.0127 9.37851 19.2368 9.15441 19.2368 8.87773C19.2368 8.60105 19.0127 8.37695 18.736 8.37695H13.2587C12.982 8.37695 12.7579 8.60105 12.7579 8.87773C12.7579 9.15441 12.982 9.37851 13.2587 9.37851H15.4972V11.9049H14.7109C9.25254 11.9049 4.81556 16.3419 4.81556 21.8003V22.4714H3.86406C3.58863 22.4714 3.36328 22.6967 3.36328 22.9722C3.36328 23.2476 3.58863 23.4729 3.86406 23.4729H14.005V25.0905H15.0065V25.0955H16.9896V25.0905H17.9912V23.4729H28.1321C28.4075 23.4729 28.6328 23.2476 28.6328 22.9722C28.6328 22.6967 28.4075 22.4714 28.1321 22.4714H28.1306Z" fill="white" fill-opacity="0.7"/>
<path d="M28.1554 10.0166L26.8184 11.3537C26.623 11.549 26.623 11.8657 26.8184 12.0623C26.916 12.1599 27.0437 12.2088 27.1727 12.2088C27.3004 12.2088 27.4293 12.1599 27.527 12.0623L28.8641 10.7252C29.0594 10.5299 29.0594 10.2131 28.8641 10.0166C28.6688 9.82129 28.352 9.82129 28.1554 10.0166Z" fill="white" fill-opacity="0.7"/>
<path d="M30.5214 14.7236H28.6297C28.353 14.7236 28.1289 14.9477 28.1289 15.2244C28.1289 15.5011 28.353 15.7252 28.6297 15.7252H30.5214C30.798 15.7252 31.0221 15.5011 31.0221 15.2244C31.0221 14.9477 30.798 14.7236 30.5214 14.7236Z" fill="white" fill-opacity="0.7"/>
<path d="M23.1602 8.36211V10.2538C23.1602 10.5305 23.3843 10.7546 23.6609 10.7546C23.9376 10.7546 24.1617 10.5305 24.1617 10.2538V8.36211C24.1617 8.08543 23.9376 7.86133 23.6609 7.86133C23.3843 7.86133 23.1602 8.08543 23.1602 8.36211Z" fill="white" fill-opacity="0.7"/>
<path d="M3.13476 10.0166C2.93945 10.2119 2.93945 10.5287 3.13476 10.7252L4.47185 12.0623C4.5695 12.1599 4.6972 12.2088 4.82616 12.2088C4.95386 12.2088 5.08281 12.1599 5.18047 12.0623C5.37578 11.867 5.37578 11.5502 5.18047 11.3537L3.84338 10.0166C3.64808 9.82129 3.33129 9.82129 3.13476 10.0166Z" fill="white" fill-opacity="0.7"/>
<path d="M3.87175 15.2244C3.87175 14.9477 3.64765 14.7236 3.37097 14.7236H1.47929C1.20261 14.7236 0.978516 14.9477 0.978516 15.2244C0.978516 15.5011 1.20261 15.7252 1.47929 15.7252H3.37097C3.64765 15.7252 3.87175 15.5011 3.87175 15.2244Z" fill="white" fill-opacity="0.7"/>
<path d="M7.84375 8.36211V10.2538C7.84375 10.5305 8.06785 10.7546 8.34453 10.7546C8.62121 10.7546 8.84531 10.5305 8.84531 10.2538V8.36211C8.84531 8.08543 8.62121 7.86133 8.34453 7.86133C8.06785 7.86133 7.84375 8.08543 7.84375 8.36211Z" fill="white" fill-opacity="0.7"/>
</svg>
