<svg width="32" height="32" viewBox="0 0 32 32" fill="none" xmlns="http://www.w3.org/2000/svg">
<path d="M4.45868 27.9607C4.88655 28.8064 5.73228 29.3338 6.68748 29.3338H21.1349C22.0901 29.3338 22.9358 28.8064 23.3637 27.9607L23.6722 27.3438H4.15039L4.45868 27.9607Z" fill="white" fill-opacity="0.7"/>
<path d="M27.3372 15.4033H23.8545V18.3883H24.8495V19.8808C24.8495 20.647 24.2724 21.2738 23.5262 21.3534C23.2376 22.4479 22.7501 23.4628 22.1133 24.3583H23.357C25.8246 24.3583 27.8344 22.3484 27.8344 19.881V15.901C27.8344 15.6224 27.6155 15.4035 27.3369 15.4035L27.3372 15.4033Z" fill="white" fill-opacity="0.7"/>
<path d="M9.45046 26.3483H18.3755C19.3307 25.8508 20.1665 25.1741 20.863 24.3582C21.5993 23.4926 22.1565 22.4876 22.5048 21.3732C22.7436 20.5871 22.8729 19.7513 22.8729 18.8857V13.9106C22.8729 13.632 22.654 13.4131 22.3754 13.4131H5.46039C5.18179 13.4131 4.96289 13.632 4.96289 13.9106V18.8857C4.96289 22.1194 6.78379 24.9253 9.45046 26.3483Z" fill="white" fill-opacity="0.7"/>
<path d="M10.1262 7.37762C9.72168 8.02904 9.33398 8.64277 9.33398 10.667H10.4577C10.4577 8.94425 10.7331 8.49741 11.0871 7.93213C11.3624 7.49606 11.6714 7.00077 11.8849 5.98866C12.2052 4.49203 11.8006 3.35609 11.4017 2.66699H10.0476C10.1319 2.75313 11.1882 3.87291 10.7836 5.77332C10.6095 6.60239 10.3735 6.97924 10.1262 7.37762Z" fill="white" fill-opacity="0.7"/>
<path d="M14.1262 7.37762C13.7217 8.02904 13.334 8.64277 13.334 10.667H14.4577C14.4577 8.94425 14.7331 8.49741 15.0871 7.93213C15.3624 7.49606 15.6714 7.00077 15.8849 5.98866C16.2052 4.49203 15.8006 3.35609 15.4017 2.66699H14.0476C14.1319 2.75313 15.1882 3.87291 14.7836 5.77332C14.6095 6.60239 14.3735 6.97924 14.1262 7.37762Z" fill="white" fill-opacity="0.7"/>
<path d="M18.1262 7.37762C17.7217 8.02904 17.334 8.64277 17.334 10.667H18.4577C18.4577 8.94425 18.7331 8.49741 19.0871 7.93213C19.3624 7.49606 19.6714 7.00077 19.8849 5.98866C20.2052 4.49203 19.8006 3.35609 19.4017 2.66699H18.0532C18.1375 2.75313 19.1938 3.87291 18.7893 5.77332C18.6095 6.60239 18.3735 6.97924 18.1262 7.37762Z" fill="white" fill-opacity="0.7"/>
</svg>
