<svg width="33" height="32" viewBox="0 0 33 32" fill="none" xmlns="http://www.w3.org/2000/svg">
<path d="M7.50023 14L15.8359 6.59055C16.2148 6.25376 16.7857 6.25376 17.1646 6.59055L25.5002 14" stroke="black" stroke-linecap="round"/>
<path d="M24.3253 15.1094C24.1186 15.1094 23.9514 15.2842 23.9514 15.5004V20.3537H8.31061V19.2787C8.31061 19.0626 8.14339 18.8877 7.93667 18.8877C7.72995 18.8877 7.56273 19.0626 7.56273 19.2787V24.6094C7.56273 24.8255 7.72995 25.0004 7.93667 25.0004C8.14339 25.0004 8.31061 24.8255 8.31061 24.6094V23.4824H23.9509V24.6094C23.9509 24.8255 24.1181 25.0004 24.3248 25.0004C24.5315 25.0004 24.6988 24.8255 24.6988 24.6094V15.5004C24.6993 15.2842 24.532 15.1094 24.3253 15.1094Z" fill="black" />
<path d="M21.2243 19.8848C22.1416 19.8848 22.8852 19.1072 22.8852 18.148C22.8852 17.1887 22.1416 16.4111 21.2243 16.4111C20.307 16.4111 19.5633 17.1887 19.5633 18.148C19.5633 19.1072 20.307 19.8848 21.2243 19.8848Z" fill="black" />
<path d="M18.8424 19.8843C19.0491 19.8843 19.2164 19.7094 19.2164 19.4932V16.8022C19.2164 16.586 19.0491 16.4111 18.8424 16.4111H11.6596C10.3926 16.4111 9.36162 17.4893 9.36162 18.8142V19.4932C9.36162 19.7094 9.52884 19.8843 9.73556 19.8843H18.8424Z" fill="black" />
</svg>
