<svg width="32" height="32" viewBox="0 0 32 32" fill="none" xmlns="http://www.w3.org/2000/svg">
<path d="M24.4008 10.3121H23.0658L22.3983 13.8963C22.3881 13.9523 22.35 13.9968 22.3004 14.0171C22.2483 14.0362 22.1898 14.0298 22.144 13.998L18.8118 11.6218C18.307 12.6694 17.2365 13.3992 15.9969 13.3992C14.7572 13.3992 13.6854 12.6707 13.182 11.6192L9.85231 13.9955C9.80654 14.0285 9.74805 14.0349 9.69592 14.0145C9.64379 13.9955 9.60819 13.9497 9.59802 13.8938L8.92799 10.3096H7.593L8.02907 15.7487C8.05832 16.1072 8.26683 16.4225 8.58213 16.5916C8.89744 16.7607 9.27505 16.7582 9.5878 16.5814L12.3124 15.0685C12.3646 15.0392 12.4269 15.043 12.4752 15.0685C12.5235 15.0977 12.5565 15.1537 12.5527 15.2121L12.4065 20.1009C12.4065 20.153 12.3773 20.2013 12.3353 20.2306L7.72651 23.3264L6.50977 30.6664H8.12444L10.0837 24.8891C10.1002 24.8433 10.1358 24.8077 10.1778 24.7886L15.9323 22.5688C15.9717 22.556 16.0098 22.556 16.0492 22.5688L21.8037 24.7886C21.8495 24.8052 21.8851 24.8446 21.8978 24.8891L23.8571 30.6664H25.4743L24.2576 23.3264L19.6487 20.2306C19.6068 20.2013 19.5775 20.153 19.5775 20.1009L19.4313 15.2121C19.4313 15.1537 19.4606 15.0977 19.5089 15.0685C19.5572 15.0392 19.6233 15.0354 19.6716 15.0685L22.3963 16.5814C22.709 16.7569 23.0866 16.7607 23.4058 16.5916C23.7211 16.4225 23.9271 16.1072 23.9563 15.7487L24.3924 10.3096L24.4008 10.3121Z" fill="white" />
<path d="M19.0924 9.98719H24.6217V8.75391H18.707C18.9155 9.12515 19.0516 9.54219 19.091 9.98719H19.0924Z" fill="white" />
<path d="M2.88287 8.75325H2.02341C1.73988 8.75325 1.50977 8.98465 1.50977 9.26689V9.47159C1.50977 9.75511 1.74116 9.98523 2.02341 9.98523H2.88287V8.75195V8.75325Z" fill="white" />
<path d="M29.963 8.75391H29.1035V9.98719H29.963C30.2465 9.98719 30.4766 9.75579 30.4766 9.47354V9.26885C30.4766 8.98532 30.2452 8.7552 29.963 8.7552V8.75391Z" fill="white" />
<path d="M7.35947 9.98719H12.8887C12.9307 9.54092 13.0642 9.12518 13.2727 8.75391H7.35938L7.35947 9.98719Z" fill="white" />
<path d="M13.2031 10.2773C13.2031 11.8195 14.4593 13.0731 15.9989 13.0731C17.5386 13.0731 18.7948 11.8169 18.7948 10.2773C18.7948 8.73757 17.5386 7.48145 15.9989 7.48145C14.4593 7.48145 13.2031 8.73761 13.2031 10.2773Z" fill="white" />
<path d="M27.7421 4.87695H28.0803C28.4706 4.87695 28.7872 5.19226 28.7872 5.58387V13.1578C28.7872 13.5456 28.4719 13.8647 28.0803 13.8647H27.7421C27.3518 13.8647 27.0352 13.5494 27.0352 13.1578L27.0364 5.58289C27.0364 5.19511 27.3517 4.87598 27.7433 4.87598L27.7421 4.87695Z" fill="white" />
<path d="M26.6993 5.58291V4.70691C26.6993 4.31913 26.384 4 25.9924 4H25.6542C25.2664 4 24.9473 4.31531 24.9473 4.70691V14.029C24.9473 14.4168 25.2626 14.7359 25.6542 14.7359H25.9924C26.3802 14.7359 26.6993 14.4206 26.6993 14.029V5.58291Z" fill="white" />
<path d="M3.9198 4.87695H4.25801C4.64579 4.87695 4.96492 5.19226 4.96492 5.58387V13.1578C4.96492 13.5481 4.64961 13.8647 4.25801 13.8647H3.9198C3.53202 13.8647 3.21289 13.5494 3.21289 13.1578V5.58289C3.21289 5.19257 3.5282 4.87598 3.9198 4.87598V4.87695Z" fill="white" />
<path d="M7.02156 4.70789C7.02156 4.32011 6.70625 4.00098 6.31465 4.00098H5.97644C5.58867 4.00098 5.26953 4.31629 5.26953 4.70789V14.03C5.26953 14.4178 5.58484 14.7369 5.97644 14.7369H6.31465C6.70243 14.7369 7.02156 14.4216 7.02156 14.03V4.70789Z" fill="white" />
</svg>
