<svg width="33" height="32" viewBox="0 0 33 32" fill="none" xmlns="http://www.w3.org/2000/svg">
<path d="M16.9569 9.10099L16.0882 7.3759H19.6457C20.036 7.3759 20.3524 7.05906 20.3524 6.66939C20.3524 6.27973 20.036 5.96289 19.6457 5.96289H13.3796C12.9893 5.96289 12.6728 6.27973 12.6728 6.66939C12.6728 7.05906 12.9893 7.3759 13.3796 7.3759H14.4918L15.371 9.12085C13.3502 9.21164 9.51989 9.60509 9.51989 11.3103V21.9125C9.5142 21.9598 9.5142 22.0071 9.51989 22.0543C9.59379 23.2479 10.5848 24.1795 11.7832 24.1824H12.4701L11.985 25.131C11.877 25.2974 11.8438 25.5017 11.894 25.6928C11.9443 25.8848 12.0722 26.0474 12.2484 26.1401C12.4151 26.2479 12.6188 26.281 12.8111 26.2309C13.0034 26.1808 13.1654 26.0531 13.2583 25.8772L14.1782 24.2732H18.9484L19.8683 25.8772H19.8673C20.0616 26.213 20.4898 26.3302 20.828 26.1401C21.0033 26.0474 21.1321 25.8848 21.1814 25.6928C21.2316 25.5017 21.1984 25.2974 21.0904 25.131L20.5551 24.1824H21.242C22.4111 24.1663 23.3765 23.2678 23.475 22.1045C23.4807 22.0572 23.4807 22.0099 23.475 21.9636V11.3103C23.4854 9.39323 18.7059 9.13126 16.9569 9.10099ZM13.7737 12.3592C14.2483 12.3592 14.633 12.7432 14.633 13.217V14.9828V14.9818C14.633 15.4557 14.2484 15.8397 13.7737 15.8397H10.9543V12.3592L13.7737 12.3592ZM16.5126 18.2712C17.2156 18.2712 17.8494 18.694 18.1185 19.3419C18.3875 19.9907 18.2388 20.7369 17.7414 21.2334C17.245 21.729 16.4965 21.8775 15.8476 21.6089C15.1976 21.3403 14.7741 20.7076 14.7741 20.0058C14.7741 19.5462 14.9579 19.1045 15.2839 18.7791C15.6098 18.4538 16.0513 18.2712 16.5126 18.2712ZM18.3923 14.9828V13.217C18.3923 12.7432 18.7769 12.3592 19.2516 12.3592H22.071V15.8396H19.2516C19.0232 15.8396 18.8053 15.7489 18.6443 15.5881C18.4832 15.4273 18.3923 15.2098 18.3923 14.9818V14.9828Z" fill="black" fill-opacity="0.5"/>
</svg>
