<svg width="33" height="32" viewBox="0 0 33 32" fill="none" xmlns="http://www.w3.org/2000/svg">
<path fill-rule="evenodd" clip-rule="evenodd" d="M8.27396 6.0007C8.04687 6.02572 7.8565 6.23943 7.85785 6.46792V7.70897C7.85201 7.74762 7.85201 7.78713 7.85785 7.82577C7.86019 7.89661 7.87678 7.9671 7.90897 8.03018L8.12066 8.80401L7.26654 11.892L6.60949 12.6001C6.54067 12.672 6.50061 12.7708 6.5 12.8703V24.7332C6.5 24.9397 6.68778 25.1276 6.89422 25.1275H12.7052C12.9117 25.1276 13.0996 24.9397 13.0995 24.7332V22.8717C13.5429 23.0688 14.0126 23.2389 14.5376 23.3681V24.6894C14.5376 24.9341 14.7602 25.1567 15.0048 25.1567H20.5239C20.7685 25.1567 20.9911 24.9341 20.9911 24.6894V23.3681C23.1973 22.8342 24.7585 21.6213 25.7363 20.375C26.2525 19.717 26.6103 19.0509 26.824 18.455C27.0378 17.8591 27.1242 17.3473 27.0138 16.8927C26.9653 16.6912 26.7685 16.5357 26.5612 16.535H22.6409L26.4371 12.7389C26.5713 12.6091 26.6186 12.3928 26.5466 12.2205C26.4746 12.0484 26.2879 11.9314 26.1013 11.9358C25.9818 11.9386 25.8641 11.9895 25.7801 12.0745L21.5824 16.2722L25.2545 9.95746C25.4231 9.67731 25.1872 9.25356 24.8602 9.24933C24.6934 9.24527 24.5275 9.33834 24.4441 9.48294L20.3487 16.535H13.0995V12.8703C13.1018 12.7717 13.0635 12.6732 12.9973 12.6002L12.3329 11.892L11.4788 8.80401L11.6978 8.01558C11.7311 7.95032 11.7488 7.87714 11.7489 7.80387V6.46792C11.7489 6.22329 11.5263 6.00072 11.2817 6.0007H8.32507C8.30802 5.99977 8.29101 5.99977 8.27396 6.0007ZM8.79229 8.27109H10.8072L10.6904 8.69451C10.6712 8.76333 10.6712 8.8374 10.6904 8.90622L11.5956 12.1913C11.6127 12.254 11.6457 12.3123 11.6905 12.3593L12.311 13.0236V24.339H7.28843V13.0236L7.90897 12.3593C7.95377 12.3123 7.98671 12.254 8.00386 12.1913L8.9091 8.90622C8.92825 8.8374 8.92825 8.76332 8.9091 8.69451L8.79229 8.27109Z" fill="#000" />
</svg>
