<svg width="32" height="32" viewBox="0 0 32 32" fill="none" xmlns="http://www.w3.org/2000/svg">
<g clip-path="url(#clip0_548_2208)">
<path fill-rule="evenodd" clip-rule="evenodd" d="M2.66602 4.52746C2.66602 3.49995 3.49897 2.66699 4.52648 2.66699H22.511C23.5385 2.66699 24.3714 3.49995 24.3714 4.52746V17.5507H16.2066C15.6068 17.5507 15.0608 17.8967 14.8047 18.4391L14.0527 20.0313H12.5885C11.9035 20.0313 11.3482 20.5867 11.3482 21.2716C11.3482 21.9566 11.9035 22.512 12.5885 22.512H12.8813L12.737 22.8178C12.6392 23.0248 12.5885 23.2508 12.5885 23.4798V24.3724H4.52648C3.49897 24.3724 2.66602 23.5395 2.66602 22.512V4.52746ZM6.71464 22.512V4.47109H13.8323C15.2007 4.47109 16.3664 4.73242 17.3295 5.25508C18.2926 5.77189 19.0267 6.49127 19.5318 7.41329C20.0427 8.32944 20.2981 9.38653 20.2981 10.5845C20.2981 11.7826 20.0398 12.8396 19.5229 13.7558C19.0062 14.6719 18.2574 15.3854 17.2767 15.8964C16.3018 16.4073 15.1214 16.6628 13.7354 16.6628H10.529V22.512H6.71464ZM13.1188 13.606H10.529V7.58947H13.1012C13.8411 7.58947 14.4519 7.71574 14.9335 7.96826C15.415 8.2149 15.7732 8.56433 16.0082 9.01654C16.2489 9.46287 16.3693 9.98553 16.3693 10.5845C16.3693 11.1777 16.2489 11.7033 16.0082 12.1613C15.7732 12.6136 15.415 12.9689 14.9335 13.2272C14.4578 13.4798 13.8529 13.606 13.1188 13.606ZM16.793 18.1709C16.2017 18.1709 15.662 18.5072 15.4013 19.0379L14.5656 20.7399C14.459 20.6683 14.3307 20.6265 14.1926 20.6265H12.6381C12.2682 20.6265 11.9683 20.9264 11.9683 21.2963C11.9683 21.6662 12.2682 21.9661 12.6381 21.9661H13.9636L13.5741 22.7592C13.4697 22.9719 13.4154 23.2057 13.4154 23.4426V25.9338V25.9352V28.7135C13.4154 29.056 13.693 29.3337 14.0355 29.3337H15.6893C16.0318 29.3337 16.3094 29.056 16.3094 28.7135V27.9941H24.9916V28.7135C24.9916 29.056 25.2692 29.3337 25.6118 29.3337H27.2655C27.608 29.3337 27.8856 29.056 27.8856 28.7135V26.4437V25.9352V23.4426C27.8856 23.2057 27.8314 22.9719 27.7269 22.7592L27.3375 21.9661H28.6629C29.0328 21.9661 29.3327 21.6662 29.3327 21.2963C29.3327 20.9264 29.0328 20.6265 28.6629 20.6265H27.1084C26.9703 20.6265 26.842 20.6683 26.7354 20.7399L25.8997 19.0379C25.6391 18.5072 25.0993 18.1709 24.508 18.1709H16.793ZM24.8193 24.199C24.6481 24.199 24.5092 24.3378 24.5092 24.509V24.7819C24.5092 24.9532 24.6481 25.092 24.8193 25.092H26.6109C26.7821 25.092 26.921 24.9532 26.921 24.7819V24.509C26.921 24.3378 26.7821 24.199 26.6109 24.199H24.8193ZM14.3801 24.509C14.3801 24.3378 14.5189 24.199 14.6901 24.199H16.4817C16.6529 24.199 16.7918 24.3378 16.7918 24.509V24.7819C16.7918 24.9532 16.6529 25.092 16.4817 25.092H14.6901C14.5189 25.092 14.3801 24.9532 14.3801 24.7819V24.509ZM19.0312 26.208C18.86 26.208 18.7211 26.3468 18.7211 26.518V26.7909C18.7211 26.9622 18.86 27.101 19.0312 27.101H22.2698C22.4411 27.101 22.5799 26.9622 22.5799 26.7909V26.518C22.5799 26.3468 22.4411 26.208 22.2698 26.208H19.0312ZM16.137 19.0984C16.2066 18.9416 16.3621 18.8406 16.5337 18.8406H24.7673C24.9389 18.8406 25.0944 18.9416 25.1641 19.0984L26.1673 21.3557C26.2949 21.6428 26.0848 21.9662 25.7706 21.9662H15.5304C15.2162 21.9662 15.0061 21.6428 15.1337 21.3557L16.137 19.0984Z" fill="white" fill-opacity="0.7"/>
</g>
<defs>
<clipPath id="clip0_548_2208">
<rect width="32" height="32" fill="white"/>
</clipPath>
</defs>
</svg>
