<svg width="32" height="32" viewBox="0 0 32 32" fill="none" xmlns="http://www.w3.org/2000/svg">
<g clip-path="url(#clip0_548_2163)">
<path d="M29.3272 3.68457H23.7013V6.92531C23.7009 7.0627 23.6461 7.19434 23.549 7.29149C23.4518 7.38864 23.3202 7.4434 23.1828 7.44381H21.0413C20.9039 7.4434 20.7723 7.38864 20.6751 7.29149C20.578 7.19434 20.5232 7.0627 20.5228 6.92531C20.5224 6.22776 20.5231 4.35661 20.5228 3.68457H17.5724V6.92531C17.572 7.0627 17.5172 7.19435 17.4201 7.2915C17.3229 7.38865 17.1913 7.44341 17.0539 7.44381H14.9176C14.7802 7.4434 14.6486 7.38864 14.5514 7.29149C14.4543 7.19434 14.3995 7.0627 14.3991 6.92531C14.4044 6.22752 14.3953 4.35686 14.3991 3.68459H11.4487C11.4486 4.34772 11.4488 6.23583 11.4487 6.92533C11.4483 7.06272 11.3936 7.19436 11.2964 7.29151C11.1993 7.38866 11.0676 7.44342 10.9302 7.44383H8.79388C8.72572 7.44406 8.6582 7.43081 8.59518 7.40483C8.53217 7.37886 8.47492 7.34068 8.42672 7.29248C8.37853 7.24429 8.34035 7.18704 8.31437 7.12402C8.2884 7.06101 8.27515 6.99348 8.27538 6.92533C8.27596 6.22772 8.27496 4.35668 8.27538 3.68459H2.66498C2.5276 3.68499 2.39595 3.73975 2.2988 3.8369C2.20165 3.93405 2.14689 4.0657 2.14648 4.20309V9.12901H29.8457V4.20309C29.8453 4.0657 29.7906 3.93404 29.6934 3.83689C29.5963 3.73974 29.4646 3.68498 29.3272 3.68457Z" fill="white" fill-opacity="0.7"/>
<path d="M3.18352 10.167H2.14648V29.4818C2.14689 29.6192 2.20165 29.7509 2.29881 29.848C2.39596 29.9452 2.52761 29.9999 2.665 30.0003H29.3272C29.4646 29.9999 29.5963 29.9452 29.6934 29.848C29.7906 29.7509 29.8453 29.6192 29.8457 29.4818V10.167H3.18352ZM23.245 12.3707C23.2454 12.2333 23.3002 12.1017 23.3973 12.0045C23.4945 11.9074 23.6261 11.8526 23.7635 11.8522H26.4857C26.5539 11.852 26.6214 11.8652 26.6844 11.8912C26.7475 11.9172 26.8047 11.9553 26.8529 12.0035C26.9011 12.0517 26.9393 12.109 26.9653 12.172C26.9912 12.235 27.0045 12.3025 27.0042 12.3707V15.0929C27.0045 15.1611 26.9912 15.2286 26.9653 15.2916C26.9393 15.3546 26.9011 15.4119 26.8529 15.4601C26.8047 15.5083 26.7475 15.5465 26.6844 15.5724C26.6214 15.5984 26.5539 15.6117 26.4857 15.6114H23.7635C23.6261 15.611 23.4945 15.5563 23.3973 15.4591C23.3002 15.362 23.2454 15.2303 23.245 15.0929V12.3707ZM10.9976 26.6663V23.944C10.9969 23.8758 11.0099 23.808 11.0357 23.7448C11.0615 23.6816 11.0997 23.6242 11.148 23.5759C11.1963 23.5276 11.2537 23.4895 11.3169 23.4636C11.3801 23.4378 11.4478 23.4249 11.5161 23.4255H14.2383C14.3065 23.4253 14.374 23.4386 14.437 23.4645C14.5 23.4905 14.5573 23.5287 14.6055 23.5769C14.6537 23.6251 14.6919 23.6823 14.7178 23.7453C14.7438 23.8084 14.7571 23.8759 14.7568 23.944V26.6663C14.7564 26.8036 14.7017 26.9353 14.6045 27.0324C14.5074 27.1296 14.3757 27.1843 14.2383 27.1848H11.5161C11.448 27.185 11.3804 27.1717 11.3174 27.1458C11.2544 27.1198 11.1971 27.0816 11.149 27.0334C11.1008 26.9852 11.0626 26.928 11.0366 26.865C11.0106 26.8019 10.9974 26.7344 10.9976 26.6663ZM23.245 18.4944C23.2454 18.357 23.3002 18.2254 23.3973 18.1282C23.4945 18.0311 23.6261 17.9763 23.7635 17.9759H26.4857C26.5539 17.9757 26.6214 17.9889 26.6844 18.0149C26.7474 18.0409 26.8047 18.0791 26.8529 18.1272C26.9011 18.1754 26.9393 18.2327 26.9652 18.2957C26.9912 18.3587 27.0045 18.4262 27.0042 18.4944V21.2166C27.0049 21.2849 26.9919 21.3526 26.9661 21.4158C26.9403 21.479 26.9021 21.5365 26.8539 21.5847C26.8056 21.633 26.7481 21.6712 26.6849 21.697C26.6217 21.7228 26.554 21.7358 26.4857 21.7351H23.7635C23.6954 21.7354 23.6278 21.7221 23.5648 21.6961C23.5018 21.6702 23.4446 21.632 23.3964 21.5838C23.3482 21.5356 23.31 21.4783 23.284 21.4153C23.258 21.3523 23.2448 21.2848 23.245 21.2166L23.245 18.4944ZM23.245 23.944C23.2448 23.8759 23.258 23.8084 23.284 23.7453C23.31 23.6823 23.3482 23.6251 23.3963 23.5769C23.4445 23.5287 23.5018 23.4905 23.5648 23.4645C23.6278 23.4386 23.6953 23.4253 23.7635 23.4255H26.4857C26.554 23.4249 26.6217 23.4378 26.6849 23.4636C26.7481 23.4895 26.8056 23.5276 26.8539 23.5759C26.9021 23.6242 26.9403 23.6816 26.9661 23.7448C26.9919 23.808 27.0049 23.8758 27.0042 23.944V26.6663C27.0045 26.7344 26.9912 26.8019 26.9652 26.865C26.9393 26.928 26.9011 26.9852 26.8529 27.0334C26.8047 27.0816 26.7474 27.1198 26.6844 27.1458C26.6214 27.1717 26.5539 27.185 26.4857 27.1848H23.7635C23.6261 27.1843 23.4945 27.1296 23.3973 27.0324C23.3002 26.9353 23.2454 26.8036 23.245 26.6663L23.245 23.944ZM17.1213 12.3707C17.1217 12.2333 17.1765 12.1017 17.2736 12.0045C17.3708 11.9074 17.5024 11.8526 17.6398 11.8522H20.362C20.4994 11.8526 20.6311 11.9074 20.7282 12.0045C20.8254 12.1017 20.8801 12.2333 20.8805 12.3707V15.0929C20.8801 15.2303 20.8254 15.362 20.7282 15.4591C20.6311 15.5563 20.4994 15.611 20.362 15.6114H17.6398C17.5024 15.611 17.3708 15.5563 17.2736 15.4591C17.1765 15.362 17.1217 15.2303 17.1213 15.0929L17.1213 12.3707ZM17.1213 18.4944C17.1217 18.357 17.1765 18.2254 17.2736 18.1282C17.3708 18.0311 17.5024 17.9763 17.6398 17.9759H20.362C20.4994 17.9763 20.6311 18.0311 20.7282 18.1282C20.8254 18.2254 20.8801 18.357 20.8805 18.4944V21.2166C20.8808 21.2848 20.8675 21.3523 20.8415 21.4153C20.8156 21.4783 20.7774 21.5356 20.7292 21.5838C20.681 21.632 20.6237 21.6702 20.5607 21.6961C20.4977 21.7221 20.4302 21.7354 20.362 21.7351H17.6398C17.5717 21.7354 17.5041 21.7221 17.4411 21.6961C17.3781 21.6702 17.3209 21.632 17.2727 21.5838C17.2245 21.5356 17.1863 21.4783 17.1603 21.4153C17.1343 21.3523 17.1211 21.2848 17.1213 21.2166L17.1213 18.4944ZM17.1213 23.944C17.1211 23.8759 17.1343 23.8084 17.1603 23.7453C17.1863 23.6823 17.2244 23.6251 17.2726 23.5769C17.3208 23.5287 17.3781 23.4905 17.4411 23.4645C17.5041 23.4386 17.5716 23.4253 17.6398 23.4255H20.362C20.4302 23.4253 20.4977 23.4386 20.5607 23.4645C20.6237 23.4905 20.681 23.5287 20.7292 23.5769C20.7774 23.6251 20.8156 23.6823 20.8415 23.7453C20.8675 23.8084 20.8808 23.8759 20.8805 23.944V26.6663C20.8801 26.8036 20.8254 26.9353 20.7282 27.0324C20.6311 27.1296 20.4994 27.1843 20.362 27.1848H17.6398C17.5024 27.1843 17.3708 27.1296 17.2736 27.0324C17.1765 26.9353 17.1217 26.8036 17.1213 26.6663L17.1213 23.944ZM10.9976 12.3707C10.9974 12.3025 11.0106 12.235 11.0366 12.172C11.0626 12.109 11.1007 12.0517 11.1489 12.0035C11.1971 11.9553 11.2544 11.9172 11.3174 11.8912C11.3804 11.8652 11.4479 11.852 11.5161 11.8522H14.2383C14.3757 11.8526 14.5074 11.9074 14.6045 12.0045C14.7017 12.1017 14.7564 12.2333 14.7568 12.3707V15.0929C14.7564 15.2303 14.7017 15.362 14.6045 15.4591C14.5074 15.5563 14.3757 15.611 14.2383 15.6114H11.5161C11.448 15.6117 11.3804 15.5984 11.3174 15.5724C11.2544 15.5465 11.1972 15.5083 11.149 15.4601C11.1008 15.4119 11.0626 15.3546 11.0366 15.2916C11.0106 15.2286 10.9974 15.1611 10.9976 15.0929L10.9976 12.3707ZM10.4635 19.6663C10.5596 19.5689 10.6902 19.5133 10.827 19.5113C10.9637 19.5094 11.0958 19.5613 11.1946 19.6559L12.045 20.4751L14.1606 18.147C14.2536 18.0462 14.3828 17.9863 14.5199 17.9804C14.657 17.9745 14.7909 18.0231 14.8923 18.1155C14.9936 18.208 15.0543 18.3368 15.061 18.4739C15.0677 18.611 15.0199 18.7451 14.928 18.847L12.4494 21.5692C12.403 21.621 12.3463 21.6625 12.2829 21.6911C12.2195 21.7196 12.1508 21.7347 12.0813 21.7352C12.0125 21.7375 11.9439 21.7258 11.8798 21.7008C11.8156 21.6759 11.7571 21.6381 11.708 21.59L10.4739 20.4026C10.4245 20.3551 10.3851 20.2983 10.3578 20.2355C10.3306 20.1726 10.3161 20.105 10.3151 20.0366C10.3141 19.9681 10.3268 19.9001 10.3522 19.8365C10.3777 19.773 10.4155 19.7151 10.4635 19.6663ZM4.8687 12.3707C4.86911 12.2333 4.92387 12.1017 5.02102 12.0045C5.11817 11.9074 5.24982 11.8526 5.3872 11.8522H8.10942C8.17758 11.852 8.24511 11.8652 8.30812 11.8912C8.37113 11.9172 8.42839 11.9553 8.47658 12.0035C8.52477 12.0517 8.56296 12.109 8.58893 12.172C8.61491 12.235 8.62816 12.3025 8.62792 12.3707V15.0929C8.62816 15.1611 8.61491 15.2286 8.58893 15.2916C8.56296 15.3546 8.52478 15.4119 8.47658 15.4601C8.42839 15.5083 8.37114 15.5465 8.30812 15.5724C8.24511 15.5984 8.17758 15.6117 8.10942 15.6114H5.38722C5.24984 15.611 5.11819 15.5563 5.02104 15.4591C4.92389 15.362 4.86913 15.2303 4.86872 15.0929L4.8687 12.3707ZM4.8687 18.4944C4.86911 18.357 4.92387 18.2254 5.02102 18.1282C5.11817 18.0311 5.24982 17.9763 5.3872 17.9759H8.10942C8.17758 17.9757 8.24511 17.9889 8.30812 18.0149C8.37113 18.0409 8.42839 18.0791 8.47658 18.1272C8.52477 18.1754 8.56296 18.2327 8.58893 18.2957C8.61491 18.3587 8.62816 18.4262 8.62792 18.4944V21.2166C8.62859 21.2849 8.61564 21.3526 8.58982 21.4158C8.564 21.479 8.52583 21.5365 8.47755 21.5847C8.42927 21.633 8.37184 21.6712 8.30863 21.697C8.24542 21.7228 8.1777 21.7358 8.10942 21.7351H5.38722C5.31907 21.7354 5.25154 21.7221 5.18853 21.6961C5.12551 21.6702 5.06826 21.632 5.02007 21.5838C4.97187 21.5356 4.93369 21.4783 4.90772 21.4153C4.88174 21.3523 4.86849 21.2848 4.86872 21.2166L4.8687 18.4944ZM4.8687 23.944C4.86847 23.8759 4.88172 23.8084 4.9077 23.7453C4.93367 23.6823 4.97185 23.6251 5.02005 23.5769C5.06824 23.5287 5.12549 23.4905 5.18851 23.4645C5.25152 23.4386 5.31905 23.4253 5.3872 23.4255H8.10942C8.1777 23.4249 8.24542 23.4378 8.30863 23.4636C8.37184 23.4895 8.42927 23.5276 8.47755 23.5759C8.52583 23.6242 8.564 23.6816 8.58982 23.7448C8.61564 23.808 8.62859 23.8758 8.62792 23.944V26.6663C8.62816 26.7344 8.61491 26.8019 8.58893 26.865C8.56296 26.928 8.52477 26.9852 8.47658 27.0334C8.42839 27.0816 8.37113 27.1198 8.30812 27.1458C8.24511 27.1717 8.17758 27.185 8.10942 27.1848H5.38722C5.24984 27.1843 5.11819 27.1296 5.02104 27.0324C4.92389 26.9353 4.86913 26.8036 4.86872 26.6663L4.8687 23.944Z" fill="white" fill-opacity="0.7"/>
<path d="M7.59729 24.4619H5.91211V26.1471H7.59729V24.4619Z" fill="white" fill-opacity="0.7"/>
<path d="M7.59729 19.0127H5.91211V20.6979H7.59729V19.0127Z" fill="white" fill-opacity="0.7"/>
<path d="M7.59729 12.8887H5.91211V14.5739H7.59729V12.8887Z" fill="white" fill-opacity="0.7"/>
<path d="M13.7262 12.8887H12.041V14.5739H13.7262V12.8887Z" fill="white" fill-opacity="0.7"/>
<path d="M19.8512 19.0127H18.166V20.6979H19.8512V19.0127Z" fill="white" fill-opacity="0.7"/>
<path d="M19.8512 12.8887H18.166V14.5739H19.8512V12.8887Z" fill="white" fill-opacity="0.7"/>
<path d="M25.9723 12.8887H24.2871V14.5739H25.9723V12.8887Z" fill="white" fill-opacity="0.7"/>
<path d="M25.9723 19.0127H24.2871V20.6979H25.9723V19.0127Z" fill="white" fill-opacity="0.7"/>
<path d="M25.9723 24.4619H24.2871V26.1471H25.9723V24.4619Z" fill="white" fill-opacity="0.7"/>
<path d="M19.8512 24.4619H18.166V26.1471H19.8512V24.4619Z" fill="white" fill-opacity="0.7"/>
<path d="M13.7262 24.4619H12.041V26.1471H13.7262V24.4619Z" fill="white" fill-opacity="0.7"/>
<path d="M10.4176 2H9.31836V6.4074H10.4176V2Z" fill="white" fill-opacity="0.7"/>
<path d="M16.5426 2H15.4434V6.4074H16.5426V2Z" fill="white" fill-opacity="0.7"/>
<path d="M22.667 4.2555V4.152V2H21.5625V6.4075H22.667V4.2555Z" fill="white" fill-opacity="0.7"/>
</g>
<defs>
<clipPath id="clip0_548_2163">
<rect width="32" height="32" fill="white"/>
</clipPath>
</defs>
</svg>
