<svg width="264" height="264" viewBox="0 0 264 264" fill="none" xmlns="http://www.w3.org/2000/svg">
<path d="M2 0H6V8H2V0Z" fill="white"/>
<path d="M8 2V6L0 6L1.74846e-07 2L8 2Z" fill="white"/>
<path d="M87.334 0H91.334V8H87.334V0Z" fill="white"/>
<path d="M93.334 2V6L85.334 6L85.334 2L93.334 2Z" fill="white"/>
<path d="M172.666 0H176.666V8H172.666V0Z" fill="white"/>
<path d="M178.666 2V6L170.666 6L170.666 2L178.666 2Z" fill="white"/>
<path d="M258 0H262V8H258V0Z" fill="white"/>
<path d="M264 2V6L256 6L256 2L264 2Z" fill="white"/>
<path d="M2 256H6V264H2V256Z" fill="white"/>
<path d="M8 258V262L0 262L1.74846e-07 258L8 258Z" fill="white"/>
<path d="M87.334 256H91.334V264H87.334V256Z" fill="white"/>
<path d="M93.334 258V262L85.334 262L85.334 258L93.334 258Z" fill="white"/>
<path d="M172.666 256H176.666V264H172.666V256Z" fill="white"/>
<path d="M178.666 258V262L170.666 262L170.666 258L178.666 258Z" fill="white"/>
<path d="M258 256H262V264H258V256Z" fill="white"/>
<path d="M264 258V262L256 262L256 258L264 258Z" fill="white"/>
<path d="M-8.74228e-08 176.667L-2.62268e-07 172.667L8 172.667L8 176.667L-8.74228e-08 176.667Z" fill="white"/>
<path d="M2 170.667L6 170.667L6 178.667L2 178.667L2 170.667Z" fill="white"/>
<path d="M-8.74228e-08 91.3335L-2.62268e-07 87.3335L8 87.3335L8 91.3335L-8.74228e-08 91.3335Z" fill="white"/>
<path d="M2 85.3335L6 85.3335L6 93.3335L2 93.3335L2 85.3335Z" fill="white"/>
<path d="M256 176.667L256 172.667L264 172.667L264 176.667L256 176.667Z" fill="white"/>
<path d="M258 170.667L262 170.667L262 178.667L258 178.667L258 170.667Z" fill="white"/>
<path d="M256 91.3335L256 87.3335L264 87.3335L264 91.3335L256 91.3335Z" fill="white"/>
<path d="M258 85.3335L262 85.3335L262 93.3335L258 93.3335L258 85.3335Z" fill="white"/>
<rect x="92" y="68" width="81" height="128" stroke="white" stroke-width="2"/>
<rect x="2.5" y="2.5" width="259" height="259" stroke="white"/>
<g style="mix-blend-mode:screen" opacity="0.8">
<path d="M2 3H261V132H174V67H91V132H2V3Z" fill="#5178E1"/>
</g>
<path d="M104.304 20.082H101V18.85H109.036V20.082H105.732V29H104.304V20.082ZM109.78 25.654C109.836 27.278 110.984 28.062 112.104 28.062C113.224 28.062 113.84 27.558 114.162 26.816H115.478C115.128 28.118 113.938 29.182 112.104 29.182C109.724 29.182 108.408 27.474 108.408 25.248C108.408 22.868 110.004 21.342 112.062 21.342C114.358 21.342 115.744 23.274 115.576 25.654H109.78ZM109.794 24.562H114.232C114.204 23.498 113.406 22.434 112.062 22.434C110.928 22.434 109.906 23.05 109.794 24.562ZM118.335 22.602C118.769 21.888 119.497 21.342 120.771 21.342C122.591 21.342 123.249 22.518 123.249 24.24V29H121.975V24.618C121.975 23.456 121.779 22.448 120.323 22.448C119.091 22.448 118.335 23.302 118.335 24.912V29H117.061V21.468H118.335V22.602ZM124.706 27.012C124.706 25.234 126.708 24.716 129.802 24.366V24.184C129.802 22.812 129.032 22.35 128.094 22.35C127.044 22.35 126.428 22.924 126.372 23.848H125.056C125.182 22.224 126.61 21.314 128.08 21.314C130.152 21.314 131.09 22.308 131.076 24.422L131.062 26.158C131.048 27.418 131.118 28.286 131.258 29H129.97C129.928 28.72 129.886 28.412 129.872 27.964C129.41 28.734 128.626 29.182 127.296 29.182C125.882 29.182 124.706 28.398 124.706 27.012ZM129.9 25.374C127.59 25.612 126.12 25.948 126.12 26.984C126.12 27.698 126.666 28.174 127.576 28.174C128.766 28.174 129.9 27.628 129.9 25.85V25.374ZM134.249 22.602C134.683 21.888 135.411 21.342 136.685 21.342C138.505 21.342 139.163 22.518 139.163 24.24V29H137.889V24.618C137.889 23.456 137.693 22.448 136.237 22.448C135.005 22.448 134.249 23.302 134.249 24.912V29H132.975V21.468H134.249V22.602ZM147.341 23.988H146.053C145.871 23.092 145.087 22.462 144.107 22.462C142.973 22.462 141.937 23.344 141.937 25.234C141.937 27.152 142.987 28.062 144.107 28.062C145.171 28.062 145.927 27.348 146.109 26.55H147.425C147.173 27.964 145.815 29.182 144.065 29.182C141.909 29.182 140.551 27.544 140.551 25.248C140.551 23.008 141.965 21.342 144.191 21.342C146.011 21.342 147.173 22.714 147.341 23.988ZM154.309 21.468L151.621 29.322C151.075 30.96 150.683 31.45 149.003 31.45H148.345V30.386H148.863C149.703 30.386 150.109 30.33 150.445 29.154L150.501 29L147.785 21.468H149.199L151.117 27.278L152.979 21.468H154.309ZM165.077 21.328C165.077 23.68 162.627 25.766 159.785 27.81H165.357V29H158.049V27.852C161.633 25.206 163.733 23.288 163.733 21.496C163.733 20.446 163.033 19.732 161.829 19.732C160.737 19.732 159.673 20.334 159.645 22.014H158.329C158.301 19.998 159.701 18.668 161.857 18.668C163.733 18.668 165.077 19.62 165.077 21.328ZM105.354 43.066L108.168 47H106.642L104.598 44.13L102.568 47H101.112L103.884 43.122L101.28 39.468H102.806L104.64 42.058L106.488 39.468H107.916L105.354 43.066ZM112.627 43.066L115.441 47H113.915L111.871 44.13L109.841 47H108.385L111.157 43.122L108.553 39.468H110.079L111.913 42.058L113.761 39.468H115.189L112.627 43.066ZM117.829 47H116.555V39.468H117.829V40.602C118.263 39.888 118.963 39.342 120.097 39.342C121.245 39.342 121.931 39.846 122.267 40.672C122.869 39.748 123.751 39.342 124.801 39.342C126.551 39.342 127.237 40.518 127.237 42.24V47H125.963V42.618C125.963 41.456 125.739 40.448 124.353 40.448C123.261 40.448 122.533 41.302 122.533 42.912V47H121.259V42.618C121.259 41.456 121.035 40.448 119.649 40.448C118.557 40.448 117.829 41.302 117.829 42.912V47ZM132.507 36.57C132.507 37.704 131.457 38.782 129.679 39.986H132.633V40.868H128.447V40.042C130.309 38.558 131.443 37.578 131.443 36.64C131.443 36.108 131.093 35.814 130.575 35.814C130.057 35.814 129.567 36.136 129.581 37.004H128.559C128.545 35.842 129.357 35.058 130.617 35.058C131.681 35.058 132.507 35.604 132.507 36.57Z" fill="white" fill-opacity="0.8"/>
</svg>
