<svg width="777" height="973" viewBox="0 0 777 973" fill="none" xmlns="http://www.w3.org/2000/svg">
<g style="mix-blend-mode:hard-light">
<rect x="168" y="609" width="128" height="63" rx="4" fill="#5178E1"/>
</g>
<path fill-rule="evenodd" clip-rule="evenodd" d="M251 232H66H61V237V459C62.7103 459 64.382 459.165 66 459.48V237H251V232ZM383 237H568V459.48C569.618 459.165 571.29 459 573 459V237V232H568H383V237ZM568 510.52V739H348.905C348.968 739.825 349 740.659 349 741.5C349 742.341 348.968 743.175 348.905 744H568H573V739V511C571.29 511 569.618 510.835 568 510.52ZM66 739H284.095C284.032 739.825 284 740.659 284 741.5C284 742.341 284.032 743.175 284.095 744H66H61V739V511C62.7103 511 64.382 510.835 66 510.52V739Z" fill="white"/>
<path fill-rule="evenodd" clip-rule="evenodd" d="M554.893 503.658C559.574 508.202 565.961 511 573 511C587.359 511 599 499.359 599 485C599 470.641 587.359 459 573 459C565.961 459 559.574 461.798 554.893 466.342C557.248 464.056 560.016 462.236 563.05 460.979C566.205 459.673 569.586 459 573 459C576.414 459 579.795 459.673 582.95 460.979C586.104 462.286 588.97 464.201 591.385 466.615L588.167 469.833C592.049 473.714 594.45 479.077 594.45 485C594.45 490.923 592.049 496.286 588.167 500.167L591.385 503.385C588.97 505.799 586.104 507.714 582.95 509.021C579.795 510.327 576.414 511 573 511C569.586 511 566.205 510.327 563.05 509.021C560.016 507.764 557.248 505.944 554.893 503.658ZM554.615 503.385L557.833 500.167C553.951 496.286 551.55 490.923 551.55 485C551.55 479.077 553.951 473.714 557.833 469.833L554.615 466.615C549.91 471.32 547 477.82 547 485C547 492.18 549.91 498.68 554.615 503.385Z" fill="white"/>
<path fill-rule="evenodd" clip-rule="evenodd" d="M42.893 503.658C47.5745 508.202 53.9605 511 61 511C75.3594 511 87 499.359 87 485C87 470.641 75.3594 459 61 459C53.9605 459 47.5745 461.798 42.893 466.342C45.2482 464.056 48.0159 462.236 51.0502 460.979C54.2047 459.673 57.5856 459 61 459C64.4144 459 67.7953 459.673 70.9498 460.979C74.1042 462.286 76.9704 464.201 79.3848 466.615L76.1674 469.833C80.0491 473.714 82.45 479.077 82.45 485C82.45 490.923 80.0491 496.286 76.1674 500.167L79.3848 503.385C76.9704 505.799 74.1042 507.714 70.9498 509.021C67.7953 510.327 64.4144 511 61 511C57.5856 511 54.2047 510.327 51.0502 509.021C48.0159 507.764 45.2482 505.944 42.893 503.658ZM42.6152 503.385L45.8326 500.167C41.9509 496.286 39.55 490.923 39.55 485C39.55 479.077 41.9509 473.714 45.8326 469.833L42.6152 466.615C37.9101 471.32 35 477.82 35 485C35 492.18 37.9101 498.68 42.6152 503.385Z" fill="white"/>
<path fill-rule="evenodd" clip-rule="evenodd" d="M349 741.962C348.979 724.03 334.437 709.5 316.5 709.5C298.551 709.5 284 724.051 284 742C284 737.732 284.841 733.506 286.474 729.563C288.107 725.62 290.501 722.037 293.519 719.019L298.115 723.615C302.82 718.91 309.32 716 316.5 716C323.68 716 330.18 718.91 334.885 723.615L339.481 719.019C342.499 722.037 344.893 725.62 346.526 729.563C348.155 733.494 348.995 737.707 349 741.962ZM349 742.038C348.995 746.293 348.155 750.506 346.526 754.437C345.002 758.116 342.817 761.481 340.08 764.366C345.6 758.548 348.99 750.689 349 742.038ZM339.481 764.981C333.6 770.862 325.475 774.5 316.5 774.5C307.525 774.5 299.4 770.862 293.519 764.981L298.115 760.385C302.82 765.09 309.32 768 316.5 768C323.68 768 330.18 765.09 334.885 760.385L339.481 764.981ZM293.05 764.502C292.98 764.429 292.91 764.355 292.84 764.282L293.05 764.502Z" fill="white"/>
<path fill-rule="evenodd" clip-rule="evenodd" d="M116 0.5H113.5V3V102V104.5H116H251V99.5H118.5V5.5H772V320.5H705.5V102V99.5H703H383V104.5H700.5V323V325.5H703H774.5H777V323V3V0.5H774.5H116Z" fill="white"/>
<path d="M253.5 99.5L253.5 237" stroke="white" stroke-width="5"/>
<path d="M380.5 99.5L380.5 237" stroke="white" stroke-width="5"/>
<rect x="170.5" y="364.5" width="123" height="242" fill="white" fill-opacity="0.5" stroke="white" stroke-width="5"/>
<rect x="338.5" y="364.5" width="123" height="242" fill="white" fill-opacity="0.5" stroke="white" stroke-width="5"/>
<rect x="2.5" y="2.5" width="772" height="968" stroke="white" stroke-width="5"/>
<path d="M331 134H349.5V101H284.5V231.5H349.5V150H331V216H301.5V114H331V134Z" stroke="white" stroke-width="2"/>
<rect y="782" width="18" height="18" fill="white"/>
<rect x="204.334" y="782" width="18" height="18" fill="white"/>
<rect x="408.666" y="782" width="18" height="18" fill="white"/>
<rect x="613" y="782" width="18" height="18" fill="white"/>
<rect y="169" width="18" height="18" fill="white"/>
<rect x="204.334" y="169" width="18" height="18" fill="white"/>
<rect x="408.666" y="169" width="18" height="18" fill="white"/>
<rect x="613" y="169" width="18" height="18" fill="white"/>
<rect x="613" y="800" width="18" height="18" transform="rotate(-90 613 800)" fill="white"/>
<rect x="613" y="595.667" width="18" height="18" transform="rotate(-90 613 595.667)" fill="white"/>
<rect x="613" y="391.333" width="18" height="18" transform="rotate(-90 613 391.333)" fill="white"/>
<rect x="613" y="187" width="18" height="18" transform="rotate(-90 613 187)" fill="white"/>
<rect y="800" width="18" height="18" transform="rotate(-90 0 800)" fill="white"/>
<rect y="595.667" width="18" height="18" transform="rotate(-90 0 595.667)" fill="white"/>
<rect y="391.333" width="18" height="18" transform="rotate(-90 0 391.333)" fill="white"/>
<rect y="187" width="18" height="18" transform="rotate(-90 0 187)" fill="white"/>
<rect x="55" y="128" width="118" height="23" stroke="white" stroke-width="2"/>
<rect x="459" y="128" width="122" height="23" stroke="white" stroke-width="2"/>
<rect x="680" y="220" width="122" height="30" transform="rotate(90 680 220)" stroke="white" stroke-width="2"/>
<path d="M650 640L650 628L680 628L680 750L650 750L650 690L650 689L649 689L644 689L644 641L649 641L650 641L650 640Z" stroke="white" stroke-width="2"/>
<path d="M18 791H622V104.5" stroke="white" stroke-width="2" stroke-dasharray="10 10"/>
</svg>
