<svg width="275" height="17" viewBox="0 0 275 17" fill="none" xmlns="http://www.w3.org/2000/svg">
<g clip-path="url(#clip0_3_1330)">
<path d="M16.0199 -0.666016H0.499023V17.6912H16.0199V-0.666016Z" fill="white"/>
<path d="M32.6624 -0.666016L19.1501 15.2779V-0.666016H32.6624Z" fill="white"/>
<path d="M34.6711 1.72168V17.6655H21.1849L34.6711 1.72168Z" fill="white"/>
<path d="M51.2874 17.6655H37.7751V1.72168L51.2874 17.6655Z" fill="white"/>
<path d="M53.3223 -0.666016V15.2779L39.8101 -0.666016H53.3223Z" fill="white"/>
<path d="M71.9471 -0.666016H56.4263V17.6912H71.9471V-0.666016Z" fill="white"/>
<path d="M87.3638 4.31504C86.8421 4.85421 85.8509 5.08528 85.0944 5.08528H84.7031V2.7489H84.964C86.2161 2.7489 87.4421 2.00434 87.8073 0.463867H89.842V17.0239H87.3638V4.31504Z" fill="white"/>
<path d="M100.876 13.2498V17.0239H98.4502V13.2498H93.207V11.4012L97.9024 0.463867H100.876V11.2985H102.65V13.2498H100.876ZM98.5285 3.21104H98.4763C98.2937 4.03262 98.0589 4.70016 97.7198 5.57309L95.9721 9.83506C95.7634 10.3742 95.5026 10.9134 95.2156 11.3242H98.4241V5.65012C98.4241 4.87988 98.4241 4.03262 98.5024 3.21104H98.5285Z" fill="white"/>
<path d="M105.702 12.1717V5.34229C105.702 1.87624 107.345 0.130371 110.189 0.130371C113.032 0.130371 114.675 1.90191 114.675 5.34229V12.1717C114.675 15.6378 113.006 17.3836 110.189 17.3836C107.371 17.3836 105.702 15.6121 105.702 12.1717ZM112.171 12.3771V5.1369C112.171 3.10861 111.467 2.10731 110.189 2.10731C108.91 2.10731 108.206 3.10861 108.206 5.11122V12.3514C108.206 14.3797 108.884 15.381 110.189 15.381C111.493 15.381 112.171 14.3797 112.171 12.3771Z" fill="white"/>
<path d="M124.17 0.104492H126.596L127.744 11.581C127.848 12.5053 127.901 13.4039 127.927 14.4822H128.031C128.135 13.6093 128.214 12.608 128.292 11.658L129.753 0.104492H132.518L133.952 11.658C134.031 12.5823 134.109 13.5836 134.213 14.4822H134.318C134.37 13.4039 134.448 12.5053 134.5 11.581L135.648 0.104492H138.074L136.065 17.024H132.805L131.448 6.0353C131.318 5.00832 131.266 3.75027 131.213 2.87734H131.083C131.031 3.7246 130.953 5.00832 130.848 6.0353L129.518 17.024H126.231L124.223 0.104492H124.17Z" fill="white"/>
<path d="M141.387 17.024V0.104492H143.917V17.024H141.387Z" fill="white"/>
<path d="M147.752 0.104492H150.282V14.7646H154.664V17.024H147.726V0.104492H147.752Z" fill="white"/>
<path d="M157.873 0.104492H160.403V14.7646H164.786V17.024H157.847V0.104492H157.873Z" fill="white"/>
<path d="M167.994 17.024V0.104492H170.524V17.024H167.994Z" fill="white"/>
<path d="M180.541 12.531H177.098L176.289 17.024H173.733L177.176 0.104492H180.437L183.906 17.024H181.35L180.541 12.531ZM180.202 10.6054L179.185 4.9313C179.028 4.10971 178.95 3.31381 178.846 2.44087H178.767C178.663 3.31381 178.585 4.10971 178.454 4.9313L177.437 10.6054H180.202Z" fill="white"/>
<path d="M187.141 0.104492H190.819L192.697 10.9135C192.853 11.8377 192.984 12.6336 193.01 13.4039H193.114C193.114 12.6336 193.271 11.8634 193.427 10.9135L195.305 0.104492H198.957V17.024H196.714V7.31903C196.714 6.11233 196.714 3.87864 196.766 2.69762H196.662C196.558 3.59623 196.479 4.10972 196.271 5.52181L194.184 16.9983H191.914L189.801 5.52181C189.593 4.08404 189.462 2.95436 189.41 2.69762H189.306C189.358 3.87864 189.358 6.11233 189.358 7.31903V17.024H187.115V0.104492H187.141Z" fill="white"/>
<path d="M208.922 12.9162V11.5041L211.505 11.0163V12.7365C211.505 14.4824 212.078 15.381 213.304 15.381C214.531 15.381 214.974 14.5851 214.974 13.327V12.7108C214.974 11.3757 214.791 10.7082 213.461 9.86095L211.4 8.57722C209.679 7.47322 209.079 6.21517 209.079 4.4693V3.62205C209.079 1.15729 210.748 -0.306152 213.304 -0.306152C215.861 -0.306152 217.556 0.849201 217.556 3.85312V5.11117L215.026 5.59898V4.10986C215.026 2.54372 214.504 1.72213 213.304 1.72213C212.105 1.72213 211.713 2.46669 211.713 3.49367V4.31526C211.713 5.41926 212.131 6.13815 213.148 6.75434L215.261 8.08941C217.191 9.29611 217.635 10.6055 217.635 12.4541V13.3527C217.635 15.9458 216.148 17.4863 213.304 17.4863C210.461 17.4863 208.948 15.8945 208.948 12.9932L208.922 12.9162Z" fill="white"/>
<path d="M229.451 2.28682H226.112V17.024H223.608V2.28682H220.243V0.104492H229.451V2.28682Z" fill="white"/>
<path d="M236.573 9.93803H235.086V17.0499H232.556V0.130371H236.599C239.755 0.130371 241.033 1.69651 241.059 4.46936V5.41932C241.059 7.52463 240.277 8.8597 238.946 9.42454L241.477 17.0499H238.79L236.573 9.93803ZM236.442 8.19216C237.877 8.19216 238.425 7.31923 238.425 5.47067V4.49504C238.425 2.67215 237.851 1.95326 236.416 1.95326H235.086V8.19216H236.442Z" fill="white"/>
<path d="M252.067 14.97V17.024H244.737V0.104492H251.911V2.15845H247.293V7.29335H251.519V9.34731H247.293V14.9957H252.093L252.067 14.97Z" fill="white"/>
<path d="M262.684 14.97V17.024H255.354V0.104492H262.528V2.15845H257.911V7.29335H262.136V9.34731H257.911V14.9957H262.71L262.684 14.97Z" fill="white"/>
<path d="M274.475 2.28682H271.136V17.024H268.632V2.28682H265.267V0.104492H274.475V2.28682Z" fill="white"/>
</g>
<defs>
<clipPath id="clip0_3_1330">
<rect width="275" height="17" fill="white"/>
</clipPath>
</defs>
</svg>
