<svg width="272" height="85" viewBox="0 0 272 85" fill="none" xmlns="http://www.w3.org/2000/svg">
<g clip-path="url(#clip0_169_2629)">
<path d="M92.469 -0.00976562H59.4297V39.6728H92.469V-0.00976562Z" fill="#DED9D0"/>
<path d="M127.833 -0.00976562L99.1016 34.5017V-0.00976562H127.833Z" fill="#DED9D0"/>
<path d="M132.138 5.16211V39.6735H103.406L132.138 5.16211Z" fill="#DED9D0"/>
<path d="M167.501 39.6726H138.77V5.16113L167.501 39.6726Z" fill="#DED9D0"/>
<path d="M171.81 -0.00976562V34.5017L143.078 -0.00976562H171.81Z" fill="#DED9D0"/>
<path d="M211.477 -0.00976562H178.438V39.6728H211.477V-0.00976562Z" fill="#DED9D0"/>
<path d="M3.80525 65.7526C3.05606 66.5395 1.63259 66.8767 0.546268 66.8767H-0.015625V63.4668H0.35897C2.15703 63.4668 3.91762 62.3801 4.44206 60.1318H7.3639V84.3011H3.80525V65.7526Z" fill="#DED9D0"/>
<path d="M22.8334 78.8299V84.3382H19.3497V78.8299H11.8203V76.1319L18.563 60.1689H22.8334V75.982H25.3807V78.8299H22.8334ZM19.4621 64.1409H19.3871C19.1624 65.34 18.7878 66.3143 18.3008 67.5883L15.791 73.8086C15.4913 74.5956 15.1168 75.3825 14.7047 75.982H19.3122V67.7008C19.3122 66.5766 19.3122 65.34 19.4246 64.1409H19.4621Z" fill="#DED9D0"/>
<path d="M29.4258 77.2188V67.2513C29.4258 62.1926 31.7857 59.6445 35.8688 59.6445C39.9519 59.6445 42.3119 62.2301 42.3119 67.2513V77.2188C42.3119 82.2774 39.9145 84.8255 35.8688 84.8255C31.8232 84.8255 29.4258 82.24 29.4258 77.2188ZM38.6783 77.5185V66.9515C38.6783 63.9912 37.6669 62.5299 35.8314 62.5299C33.9958 62.5299 32.9844 63.9913 32.9844 66.914V77.4811C32.9844 80.4413 33.9584 81.9027 35.8314 81.9027C37.7043 81.9027 38.6783 80.4413 38.6783 77.5185Z" fill="#DED9D0"/>
<path d="M55.5743 59.6068H59.0581L60.7063 76.3192C60.8561 77.6682 60.9311 78.9797 60.9685 80.5535H61.1184C61.2682 79.2795 61.3806 77.8181 61.4929 76.4316L63.5907 59.5693H67.5614L69.6217 76.4316C69.734 77.7806 69.8464 79.242 69.9963 80.5535H70.1461C70.221 78.9797 70.3334 77.6682 70.4083 76.3192L72.0565 59.6068H75.5403L72.6559 84.3007H67.9734L66.0256 68.2628C65.8383 66.7639 65.7633 64.9278 65.6884 63.6538H65.5011C65.4262 64.8903 65.3138 66.7639 65.164 68.2628L63.2535 84.3007H58.5336L55.6493 59.6068H55.5743Z" fill="#DED9D0"/>
<path d="M80.2969 84.3013V59.6074H83.9304V84.3013H80.2969Z" fill="#DED9D0"/>
<path d="M89.4375 59.6074H93.0711V81.0038H99.3643V84.3013H89.4375V59.6074Z" fill="#DED9D0"/>
<path d="M103.973 59.6074H107.606V81.0038H113.899V84.3013H103.973V59.6074Z" fill="#DED9D0"/>
<path d="M118.508 84.3013V59.6074H122.141V84.3013H118.508Z" fill="#DED9D0"/>
<path d="M136.527 77.7437H131.582L130.421 84.3013H126.75L131.695 59.6074H136.377L141.359 84.3013H137.688L136.527 77.7437ZM136.04 74.9334L134.579 66.6521C134.354 65.453 134.242 64.2914 134.092 63.0173H133.98C133.83 64.2914 133.717 65.453 133.53 66.6521L132.069 74.9334H136.04Z" fill="#DED9D0"/>
<path d="M146.002 59.6074H151.284L153.981 75.3455C154.206 76.6945 154.393 77.8561 154.431 78.9803H154.581C154.581 77.8561 154.805 76.732 155.03 75.3455L157.727 59.6074H162.971V84.3013H159.75V70.137C159.75 68.3758 159.75 65.1158 159.825 63.3921H159.675C159.525 64.7036 159.45 65.453 159.113 67.5139L156.116 84.2638H152.857L149.823 67.5139C149.523 65.4155 149.336 63.7668 149.261 63.3921H149.111C149.186 65.1158 149.186 68.3758 149.186 70.137V84.3013H145.965V59.6074H146.002Z" fill="#DED9D0"/>
<path d="M177.242 78.3428V76.2819L180.951 75.5699V78.0805C180.951 80.6286 181.775 81.9401 183.535 81.9401C185.296 81.9401 185.933 80.7785 185.933 78.9424V78.0431C185.933 76.0945 185.708 75.1203 183.76 73.8837L180.801 72.0101C178.329 70.3988 177.467 68.5627 177.467 66.0147V64.7781C177.467 61.1808 179.864 59.0449 183.498 59.0449C187.132 59.0449 189.604 60.7311 189.604 65.0779V66.914L185.97 67.6259V65.4526C185.97 63.1668 185.221 61.9677 183.498 61.9677C181.775 61.9677 181.213 63.0544 181.213 64.5533V65.7524C181.213 67.3636 181.812 68.4128 183.273 69.3122L186.307 71.2607C189.079 73.0219 189.716 74.9329 189.716 77.6309V78.9424C189.716 82.727 187.581 84.9753 183.498 84.9753C179.415 84.9753 177.242 82.6521 177.242 78.4178V78.3428Z" fill="#DED9D0"/>
<path d="M206.274 62.8296H201.479V84.3384H197.883V62.8296H193.051V59.6445H206.274V62.8296Z" fill="#DED9D0"/>
<path d="M216.503 73.9587H214.368V84.3384H210.734V59.6445H216.541C221.073 59.6445 222.909 61.9303 222.946 65.9773V67.3637C222.946 70.4364 221.822 72.3849 219.912 73.2093L223.546 84.3384H219.687L216.503 73.9587ZM216.316 71.4106C218.376 71.4106 219.163 70.1366 219.163 67.4386V66.0147C219.163 63.3542 218.339 62.305 216.278 62.305H214.368V71.4106H216.316Z" fill="#DED9D0"/>
<path d="M238.753 81.3035V84.3013H228.227V59.6074H238.528V62.6052H231.898V70.0995H237.966V73.0972H231.898V81.341H238.79L238.753 81.3035Z" fill="#DED9D0"/>
<path d="M253.995 81.3035V84.3013H243.469V59.6074H253.77V62.6052H247.14V70.0995H253.208V73.0972H247.14V81.341H254.032L253.995 81.3035Z" fill="#DED9D0"/>
<path d="M270.926 62.8296H266.132V84.3384H262.535V62.8296H257.703V59.6445H270.926V62.8296Z" fill="#DED9D0"/>
</g>
<defs>
<clipPath id="clip0_169_2629">
<rect width="272" height="85" fill="white"/>
</clipPath>
</defs>
</svg>
