<svg width="99" height="85" viewBox="0 0 99 85" fill="none" xmlns="http://www.w3.org/2000/svg">
<line x1="70.3434" y1="3.15791" x2="72.4125" y2="2.41173" stroke="white" stroke-width="4"/>
<line x1="73.5461" y1="3.49113" x2="97.3562" y2="69.5145" stroke="white" stroke-width="3"/>
<line x1="67.2735" y1="78.3433" x2="88.1526" y2="70.8137" stroke="white" stroke-width="3"/>
<line x1="81.2426" y1="67.567" x2="66.5708" y2="72.8582" stroke="white"/>
<line x1="88.1683" y1="71.4462" x2="68.6058" y2="78.501" stroke="white"/>
<line x1="66.8715" y1="72.2181" x2="68.9744" y2="78.0492" stroke="white"/>
<line x1="59.1124" y1="31.547" x2="71.3389" y2="27.1377" stroke="white"/>
<line x1="62.9789" y1="42.2687" x2="75.3936" y2="37.7916" stroke="white"/>
<line x1="71.2263" y1="27.7099" x2="67.0205" y2="16.0477" stroke="white"/>
<line x1="82.5548" y1="59.1225" x2="75.0929" y2="38.4314" stroke="white"/>
<line x1="67.1331" y1="15.4755" x2="75.2214" y2="12.5585" stroke="white"/>
<line x1="84.248" y1="58.5121" x2="86.7579" y2="65.4719" stroke="white" stroke-width="3"/>
<line x1="21.3988" y1="80.2203" x2="23.0918" y2="79.6098" stroke="white" stroke-width="3"/>
<line x1="39.0804" y1="73.8438" x2="40.7733" y2="73.2333" stroke="white" stroke-width="3"/>
<line x1="20.0187" y1="20.9874" x2="21.7116" y2="20.3769" stroke="white" stroke-width="3"/>
<line x1="56.5738" y1="67.5355" x2="58.2667" y2="66.925" stroke="white" stroke-width="3"/>
<line x1="37.512" y1="14.679" x2="39.2049" y2="14.0685" stroke="white" stroke-width="3"/>
<line x1="74.0671" y1="61.2266" x2="75.76" y2="60.6161" stroke="white" stroke-width="3"/>
<line x1="67.6906" y1="43.5453" x2="69.3835" y2="42.9347" stroke="white" stroke-width="3"/>
<line x1="15.0224" y1="62.5389" x2="16.7153" y2="61.9284" stroke="white" stroke-width="3"/>
<line x1="61.4498" y1="26.2398" x2="63.1427" y2="25.6293" stroke="white" stroke-width="3"/>
<line x1="8.78154" y1="45.2337" x2="10.4744" y2="44.6232" stroke="white" stroke-width="3"/>
<line x1="55.0054" y1="8.37045" x2="56.6983" y2="7.75993" stroke="white" stroke-width="3"/>
<line x1="2.3372" y1="27.3643" x2="4.03011" y2="26.7538" stroke="white" stroke-width="3"/>
<line x1="21.8288" y1="82.2977" x2="21.2183" y2="80.6048" stroke="white" stroke-width="3"/>
<line x1="39.5102" y1="75.9212" x2="38.8997" y2="74.2283" stroke="white" stroke-width="3"/>
<line x1="20.4487" y1="23.0648" x2="19.8382" y2="21.3719" stroke="white" stroke-width="3"/>
<line x1="57.0036" y1="69.6124" x2="56.3931" y2="67.9195" stroke="white" stroke-width="3"/>
<line x1="37.942" y1="16.7562" x2="37.3315" y2="15.0633" stroke="white" stroke-width="3"/>
<line x1="74.497" y1="63.3038" x2="73.8865" y2="61.6109" stroke="white" stroke-width="3"/>
<line x1="68.1204" y1="45.6224" x2="67.5099" y2="43.9295" stroke="white" stroke-width="3"/>
<line x1="15.4524" y1="64.6163" x2="14.8418" y2="62.9234" stroke="white" stroke-width="3"/>
<line x1="61.8797" y1="28.3172" x2="61.2692" y2="26.6243" stroke="white" stroke-width="3"/>
<line x1="9.21151" y1="47.3111" x2="8.601" y2="45.6182" stroke="white" stroke-width="3"/>
<line x1="55.4354" y1="10.4478" x2="54.8249" y2="8.75493" stroke="white" stroke-width="3"/>
<line x1="2.76718" y1="29.4412" x2="2.15666" y2="27.7483" stroke="white" stroke-width="3"/>
<line x1="9.24761" y1="30.6117" x2="26.741" y2="24.303" stroke="white"/>
<line x1="25.0532" y1="74.4391" x2="42.5465" y2="68.1304" stroke="white"/>
<line x1="33.7006" y1="21.7931" x2="53.2631" y2="14.7382" stroke="white"/>
<line x1="49.5063" y1="65.6205" x2="69.0687" y2="58.5656" stroke="white"/>
<line x1="58.9997" y1="32.1188" x2="52.9624" y2="15.3779" stroke="white"/>
<line x1="63.6189" y1="42.5694" x2="69.5206" y2="58.9341" stroke="white"/>
<line x1="9.88759" y1="30.9124" x2="16.2641" y2="48.5939" stroke="white"/>
<line x1="19.3167" y1="57.0579" x2="25.6932" y2="74.7394" stroke="white"/>
<rect x="25.4953" y="36.7623" width="20.5953" height="9.79756" transform="rotate(-19.8309 25.4953 36.7623)" stroke="white" stroke-width="2"/>
<rect x="30.7863" y="51.434" width="20.5953" height="9.79756" transform="rotate(-19.8309 30.7863 51.434)" stroke="white" stroke-width="2"/>
<line x1="71.7072" y1="39.6522" x2="79.983" y2="62.6004" stroke="white"/>
<line x1="59.497" y1="5.79424" x2="67.7728" y2="28.7425" stroke="white"/>
<line x1="60.0983" y1="4.5147" x2="68.7133" y2="28.4035" stroke="white"/>
<line x1="59.1962" y1="6.43422" x2="1.44933" y2="27.2596" stroke="white"/>
<line x1="59.9857" y1="5.0868" x2="0.16965" y2="26.6583" stroke="white"/>
<line x1="1.75001" y1="26.6199" x2="22.2362" y2="83.4263" stroke="white"/>
<line x1="0.53822" y1="26.2066" x2="21.6349" y2="84.7059" stroke="white"/>
<line x1="21.5962" y1="83.1254" x2="79.3431" y2="62.3" stroke="white"/>
<line x1="20.9949" y1="84.4051" x2="80.8109" y2="62.8336" stroke="white"/>
<line x1="70.403" y1="35.4463" x2="71.0135" y2="37.1393" stroke="white"/>
<line x1="71.7196" y1="34.9715" x2="72.3301" y2="36.6644" stroke="white"/>
<line x1="70.645" y1="37.5912" x2="62.3685" y2="40.5759" stroke="white"/>
<line x1="61.9166" y1="40.2075" x2="59.8816" y2="34.5644" stroke="white"/>
<line x1="59.9942" y1="33.9923" x2="72.5969" y2="29.4474" stroke="white"/>
<line x1="73.0488" y1="29.8157" x2="75.1517" y2="35.6469" stroke="white"/>
<line x1="74.7831" y1="36.099" x2="72.1497" y2="37.0487" stroke="white"/>
<line x1="70.1022" y1="36.0863" x2="63.3306" y2="38.5284" stroke="white"/>
<line x1="72.1622" y1="32.3678" x2="62.3809" y2="35.8952" stroke="white"/>
<line x1="62.6817" y1="35.2552" x2="63.6992" y2="38.0767" stroke="white"/>
<line x1="72.2748" y1="31.7955" x2="73.2923" y2="34.617" stroke="white"/>
<line x1="72.9238" y1="35.069" x2="71.6071" y2="35.5438" stroke="white"/>
<line x1="85.3808" y1="66.0748" x2="82.9355" y2="66.9567" stroke="white"/>
<line x1="82.8203" y1="49.2488" x2="86.2799" y2="58.842" stroke="white"/>
<line x1="86.1148" y1="59.858" x2="87.4315" y2="59.3832" stroke="white"/>
<line x1="87.8154" y1="59.5633" x2="88.833" y2="62.3848" stroke="white"/>
<line x1="87.9063" y1="60.6998" x2="92.0445" y2="59.2074" stroke="white"/>
<line x1="87.0645" y1="62.4916" x2="89.1336" y2="61.7454" stroke="white"/>
<line x1="90.4503" y1="61.2701" x2="92.5194" y2="60.5239" stroke="white"/>
<line x1="89.4017" y1="70.151" x2="95.2328" y2="68.0481" stroke="white"/>
<line x1="89.4694" y1="70.339" x2="95.3005" y2="68.2361" stroke="white" stroke-width="3"/>
<line x1="86.9641" y1="71.3488" x2="86.0144" y2="68.7154" stroke="white"/>
<line x1="87.8106" y1="64.5604" x2="89.1273" y2="64.0856" stroke="white"/>
<line x1="89.6996" y1="64.1983" x2="91.6668" y2="69.6532" stroke="white"/>
<line x1="91.7532" y1="62.8199" x2="92.1602" y2="63.9485" stroke="white"/>
<line x1="91.5202" y1="63.6476" x2="93.4012" y2="62.9692" stroke="white"/>
<line x1="92.5672" y1="65.0772" x2="92.9742" y2="66.2058" stroke="white"/>
<line x1="94.4866" y1="65.9791" x2="92.0413" y2="66.861" stroke="white"/>
<line x1="87.9746" y1="47.9218" x2="84.9649" y2="49.0071" stroke="white"/>
<line x1="72.6477" y1="39.3133" x2="81.2628" y2="63.2021" stroke="white"/>
<line x1="69.7393" y1="73.0972" x2="70.6211" y2="75.5425" stroke="white"/>
</svg>
