<svg width="789" height="248" viewBox="0 0 789 248" fill="none" xmlns="http://www.w3.org/2000/svg" >
<path d="M269.327 0H173.115V115.799H269.327V0Z" fill="white"/>
<path d="M372.301 3.32533e-06L288.635 100.709V3.32533e-06H372.301Z" fill="white"/>
<path d="M384.846 15.09V115.799H301.179L384.846 15.09Z" fill="white"/>
<path d="M487.821 115.799H404.154V15.09L487.821 115.799Z" fill="white"/>
<path d="M500.365 3.32533e-06V100.709L416.698 3.32533e-06H500.365Z" fill="white"/>
<path d="M615.885 3.32533e-06H519.673V115.799H615.885V3.32533e-06Z" fill="white"/>
<path d="M11.1265 191.905C8.94484 194.201 4.79967 195.185 1.63625 195.185H0V185.235H1.09083C6.32684 185.235 11.4538 182.063 12.9809 175.503H21.4894V246.032H11.1265V191.905Z" fill="white"/>
<path d="M66.5409 230.067V246.141H56.3961V230.067H34.4703V222.194L54.1054 175.612H66.5409V221.757H73.9585V230.067H66.5409ZM56.7234 187.203H56.5052C55.8507 190.702 54.7598 193.545 53.3418 197.263L46.0332 215.414C45.1605 217.711 44.0697 220.007 42.8698 221.757H56.287V197.591C56.287 194.31 56.287 190.702 56.6143 187.203H56.7234Z" fill="white"/>
<path d="M85.7395 225.365V196.279C85.7395 181.517 92.6118 174.081 104.502 174.081C116.392 174.081 123.264 181.626 123.264 196.279V225.365C123.264 240.127 116.283 247.563 104.502 247.563C92.7209 247.563 85.7395 240.018 85.7395 225.365ZM112.683 226.24V195.404C112.683 186.765 109.738 182.501 104.393 182.501C99.0477 182.501 96.1024 186.765 96.1024 195.295V226.131C96.1024 234.769 98.9386 239.033 104.393 239.033C109.847 239.033 112.683 234.769 112.683 226.24Z" fill="white"/>
<path d="M161.88 173.972H172.024L176.824 222.741C177.26 226.677 177.479 230.504 177.588 235.097H178.024C178.46 231.379 178.788 227.115 179.115 223.069L185.224 173.862H196.786L202.786 223.069C203.113 227.005 203.44 231.27 203.877 235.097H204.313C204.531 230.504 204.859 226.677 205.077 222.741L209.876 173.972H220.021L211.622 246.032H197.986L192.314 199.231C191.769 194.857 191.55 189.499 191.332 185.781H190.787C190.569 189.39 190.241 194.857 189.805 199.231L184.242 246.032H170.497L162.098 173.972H161.88Z" fill="white"/>
<path d="M233.875 246.032V173.972H244.456V246.032H233.875Z" fill="white"/>
<path d="M260.491 173.972H271.072V236.409H289.398V246.032H260.491V173.972Z" fill="white"/>
<path d="M302.815 173.972H313.397V236.409H331.723V246.032H302.815V173.972Z" fill="white"/>
<path d="M345.14 246.032V173.972H355.721V246.032H345.14Z" fill="white"/>
<path d="M397.609 226.896H383.21L379.828 246.032H369.138L383.537 173.972H397.173L411.681 246.032H400.99L397.609 226.896ZM396.191 218.695L391.937 194.529C391.282 191.03 390.955 187.64 390.518 183.922H390.191C389.755 187.64 389.428 191.03 388.882 194.529L384.628 218.695H396.191Z" fill="white"/>
<path d="M440.588 173.972L448.442 219.898C449.096 223.834 449.642 227.224 449.751 230.504H450.187C450.187 227.224 450.842 223.944 451.496 219.898L459.35 173.972H474.622V246.032H465.24V204.698C465.24 199.559 465.241 190.046 465.459 185.016H465.022C464.586 188.843 464.368 191.03 463.386 197.044L454.659 245.922H445.169L436.333 197.044C435.461 190.921 434.915 186.109 434.697 185.016H434.261C434.479 190.046 434.479 199.559 434.479 204.698V246.032H425.098V173.972H440.588Z" fill="white"/>
<path d="M516.182 222.631L526.982 220.554V227.88C526.982 235.316 529.382 239.143 534.508 239.143C539.635 239.143 541.49 235.753 541.49 230.395V227.771C541.49 222.085 540.835 219.242 535.163 215.633L526.545 210.166C519.346 205.464 516.837 200.106 516.837 192.67V189.062C516.837 178.564 523.818 172.332 534.399 172.332C544.981 172.332 552.18 177.252 552.18 189.936V195.295L541.599 197.372V191.03C541.599 184.36 539.417 180.861 534.399 180.861C529.382 180.861 527.745 184.032 527.745 188.406V191.905C527.745 196.607 529.491 199.668 533.745 202.293L542.581 207.979C550.653 213.118 552.507 218.695 552.507 226.568V230.395C552.507 241.439 546.29 248 534.399 248C522.509 248 516.182 241.22 516.182 228.864V222.631Z" fill="white"/>
<path d="M600.722 183.376H586.759V246.141H576.287V183.376H562.216V174.081H600.722V183.376Z" fill="white"/>
<path d="M630.502 215.852H624.284V246.141H613.703V174.081H630.611C643.81 174.081 649.155 180.751 649.264 192.561V196.607C649.264 205.573 645.992 211.259 640.428 213.665L651.01 246.141H639.774L630.502 215.852ZM629.956 208.416C635.956 208.416 638.247 204.698 638.247 196.825V192.67C638.247 184.907 635.847 181.845 629.847 181.845H624.284V208.416H629.956Z" fill="white"/>
<path d="M695.297 237.284V246.032H664.645V173.972H694.643V182.72H675.335V204.589H693.007V213.337H675.335V237.393H695.406L695.297 237.284Z" fill="white"/>
<path d="M739.694 237.284V246.032H709.042V173.972H739.04V182.72H719.732V204.589H737.404V213.337H719.732V237.393H739.803L739.694 237.284Z" fill="white"/>
<path d="M789 183.376H775.037V246.141H764.565V183.376H750.494V174.081H789V183.376Z" fill="white"/>
</svg>
