<svg width="33" height="32" viewBox="0 0 33 32" fill="none" xmlns="http://www.w3.org/2000/svg">
<path fill-rule="evenodd" clip-rule="evenodd" d="M11.8005 21.6223C10.4793 21.2866 9.5 20.067 9.5 18.6143V9.10083C9.5 7.38831 10.8606 6 12.5388 6H20.4612C22.1394 6 23.5 7.3884 23.5 9.10083V18.6143C23.5 20.067 22.5209 21.2866 21.1995 21.6223L23.3958 25.2482L22.204 26L21.3404 24.5723H11.6591L10.7955 26L9.60374 25.2482L11.8005 21.6223ZM13.0002 17.4275C12.4209 17.4275 11.9502 17.9079 11.9502 18.4999C11.9502 19.0909 12.4209 19.5713 13.0002 19.5713C13.5794 19.5713 14.0502 19.0909 14.0502 18.4999C14.0502 17.9079 13.5794 17.4275 13.0002 17.4275ZM20.3092 8.14265H12.6913C12.0884 8.14265 11.6001 8.64087 11.6001 9.25517V14.1732C11.6001 14.7875 12.0884 15.2857 12.6913 15.2857H20.3092C20.9121 15.2857 21.4003 14.7875 21.4003 14.1732V9.25517C21.4003 8.64087 20.9121 8.14265 20.3092 8.14265ZM20.0003 17.4275C19.4211 17.4275 18.9503 17.9079 18.9503 18.4999C18.9503 19.0909 19.4211 19.5713 20.0003 19.5713C20.5796 19.5713 21.0503 19.0909 21.0503 18.4999C21.0503 17.9079 20.5796 17.4275 20.0003 17.4275ZM19.61 21.7151H13.3904L12.525 23.1437H20.4753L19.61 21.7151Z" fill="black" fill-opacity="0.5"/>
</svg>
