<svg width="33" height="32" viewBox="0 0 33 32" fill="none" xmlns="http://www.w3.org/2000/svg">
<path d="M20.3645 9.3623V25.2735L24.2877 26.6177H25.2903V8.1123L20.3645 9.3623Z" fill="black" fill-opacity="0.5"/>
<path d="M14.3274 26.6004H15.2114V22.5476L14.3274 21.4922V26.6004Z" fill="black" fill-opacity="0.5"/>
<path d="M14.3274 7V10.5316C14.586 10.3722 14.8882 10.2772 15.2112 10.2678V7.9252H25.8182V26.6004H26.7024V7H14.3274Z" fill="black" fill-opacity="0.5"/>
<path d="M15.2642 13.4615C16.0394 13.4615 16.6678 12.8331 16.6678 12.0579C16.6678 11.2827 16.0394 10.6543 15.2642 10.6543C14.489 10.6543 13.8606 11.2827 13.8606 12.0579C13.8606 12.8331 14.489 13.4615 15.2642 13.4615Z" fill="black" fill-opacity="0.5"/>
<path d="M19.1021 18.0983L17.0781 17.2029L15.7905 14.5529C15.7565 14.4621 15.7145 14.3755 15.6649 14.2939L15.6343 14.2311C15.5577 14.0739 15.4373 13.9569 15.3033 13.8913C15.1487 13.7741 14.9691 13.6877 14.7695 13.6437C14.6527 13.6181 14.5357 13.6099 14.4205 13.6145C14.3177 13.6113 14.2089 13.6267 14.0991 13.6657C13.9223 13.7157 13.7557 13.8001 13.6073 13.9139L10.5847 15.5127C10.5301 15.5413 10.4817 15.5751 10.4359 15.6111C10.2881 15.6905 10.1749 15.8317 10.1413 16.0097L9.66908 18.5123C9.61008 18.8249 9.81588 19.1267 10.1289 19.1857C10.4419 19.2447 10.7435 19.0389 10.8025 18.7255L11.2455 16.3783L12.8691 15.5193L12.1545 18.7625C12.1329 18.8609 12.1247 18.9543 12.1273 19.0431L11.5857 22.4259C11.5737 22.4421 11.5605 22.4561 11.5491 22.4735L9.41888 25.7583C9.15228 26.1691 9.20388 26.6759 9.53368 26.8893C9.86328 27.1029 10.3463 26.9435 10.6129 26.5329L12.7441 23.2483C12.8113 23.1441 12.8583 23.0343 12.8857 22.9251C12.9107 22.8673 12.9317 22.8067 12.9421 22.7415L13.3439 20.2307C13.3931 20.2447 13.4425 20.2565 13.4923 20.2673C13.6601 20.3049 13.8069 20.3625 13.9375 20.4217L16.1611 23.0771L16.8485 26.3549C16.9361 26.7705 17.3189 27.0427 17.7037 26.9627C18.0879 26.8813 18.3293 26.4787 18.2419 26.0619L17.5435 22.7339C17.5161 22.6027 17.4567 22.4881 17.3793 22.3915C17.3531 22.3457 17.3229 22.3013 17.2873 22.2591L14.9679 19.4905L15.6007 16.6199L16.1515 17.7533C16.1679 17.7873 16.1875 17.8185 16.2081 17.8491C16.2455 18.0051 16.3441 18.1395 16.4947 18.2061L18.6351 19.1531C18.9029 19.2719 19.2241 19.1317 19.3533 18.8403C19.4819 18.5493 19.3701 18.2171 19.1021 18.0983Z" fill="black" fill-opacity="0.5"/>
</svg>
