<svg width="136" height="19" viewBox="0 0 136 19" fill="none" xmlns="http://www.w3.org/2000/svg">
<path d="M10.3815 0.456001L12.741 5.38911C12.8616 5.63784 13.0895 5.80365 13.3443 5.84511L18.6263 6.63274C19.2832 6.72947 19.5514 7.55857 19.0687 8.0422L15.248 11.8837C15.0603 12.0771 14.9664 12.3535 15.02 12.616L15.9183 18.0328C16.0255 18.7099 15.3418 19.2211 14.7519 18.9033L10.0329 16.3469C9.80502 16.2226 9.52349 16.2226 9.28218 16.3469L4.56318 18.9033C3.97331 19.2211 3.28959 18.7099 3.39684 18.0328L4.29506 12.616C4.33528 12.3535 4.25484 12.0771 4.06715 11.8837L0.246377 8.0422C-0.236247 7.55857 0.0318775 6.72947 0.688783 6.63274L5.97084 5.84511C6.22556 5.80365 6.45346 5.63784 6.57412 5.38911L8.93362 0.456001C9.22855 -0.152 10.0731 -0.152 10.3681 0.456001H10.3815Z" fill="#162425" fill-opacity="0.2"/>
<path d="M33.7185 0.456001L36.078 5.38911C36.1986 5.63784 36.4265 5.80365 36.6812 5.84511L41.9633 6.63274C42.6202 6.72947 42.8883 7.55857 42.4057 8.0422L38.5849 11.8837C38.3972 12.0771 38.3034 12.3535 38.357 12.616L39.2552 18.0328C39.3625 18.7099 38.6788 19.2211 38.0889 18.9033L33.3699 16.3469C33.142 16.2226 32.8605 16.2226 32.6192 16.3469L27.9002 18.9033C27.3103 19.2211 26.6266 18.7099 26.7338 18.0328L27.632 12.616C27.6723 12.3535 27.5918 12.0771 27.4041 11.8837L23.5834 8.0422C23.1007 7.55857 23.3689 6.72947 24.0258 6.63274L29.3078 5.84511C29.5625 5.80365 29.7904 5.63784 29.9111 5.38911L32.2706 0.456001C32.5655 -0.152 33.4101 -0.152 33.7051 0.456001H33.7185Z" fill="#162425" fill-opacity="0.2"/>
<path d="M57.0554 0.456001L59.4149 5.38911C59.5356 5.63784 59.7635 5.80365 60.0182 5.84511L65.3003 6.63274C65.9572 6.72947 66.2253 7.55857 65.7427 8.0422L61.9219 11.8837C61.7342 12.0771 61.6404 12.3535 61.694 12.616L62.5922 18.0328C62.6995 18.7099 62.0157 19.2211 61.4259 18.9033L56.7069 16.3469C56.479 16.2226 56.1974 16.2226 55.9561 16.3469L51.2371 18.9033C50.6473 19.2211 49.9635 18.7099 50.0708 18.0328L50.969 12.616C51.0092 12.3535 50.9288 12.0771 50.7411 11.8837L46.9203 8.0422C46.4377 7.55857 46.7058 6.72947 47.3627 6.63274L52.6448 5.84511C52.8995 5.80365 53.1274 5.63784 53.2481 5.38911L55.6076 0.456001C55.9025 -0.152 56.7471 -0.152 57.042 0.456001H57.0554Z" fill="#162425" fill-opacity="0.2"/>
<path d="M80.3924 0.456001L82.7519 5.38911C82.8726 5.63784 83.1005 5.80365 83.3552 5.84511L88.6373 6.63274C89.2942 6.72947 89.5623 7.55857 89.0797 8.0422L85.2589 11.8837C85.0712 12.0771 84.9773 12.3535 85.031 12.616L85.9292 18.0328C86.0364 18.7099 85.3527 19.2211 84.7629 18.9033L80.0439 16.3469C79.8159 16.2226 79.5344 16.2226 79.2931 16.3469L74.5741 18.9033C73.9842 19.2211 73.3005 18.7099 73.4078 18.0328L74.306 12.616C74.3462 12.3535 74.2658 12.0771 74.0781 11.8837L70.2573 8.0422C69.7747 7.55857 70.0428 6.72947 70.6997 6.63274L75.9818 5.84511C76.2365 5.80365 76.4644 5.63784 76.5851 5.38911L78.9445 0.456001C79.2395 -0.152 80.0841 -0.152 80.379 0.456001H80.3924Z" fill="#162425" fill-opacity="0.2"/>
<path d="M103.729 0.456001L106.089 5.38911C106.21 5.63784 106.437 5.80365 106.692 5.84511L111.974 6.63274C112.631 6.72947 112.899 7.55857 112.417 8.0422L108.596 11.8837C108.408 12.0771 108.314 12.3535 108.368 12.616L109.266 18.0328C109.373 18.7099 108.69 19.2211 108.1 18.9033L103.381 16.3469C103.153 16.2226 102.871 16.2226 102.63 16.3469L97.9111 18.9033C97.3212 19.2211 96.6375 18.7099 96.7448 18.0328L97.643 12.616C97.6832 12.3535 97.6028 12.0771 97.4151 11.8837L93.5943 8.0422C93.1117 7.55857 93.3798 6.72947 94.0367 6.63274L99.3187 5.84511C99.5735 5.80365 99.8014 5.63784 99.922 5.38911L102.282 0.456001C102.576 -0.152 103.421 -0.152 103.716 0.456001H103.729Z" fill="#162425" fill-opacity="0.2"/>
<path d="M127.066 0.456001L129.426 5.38911C129.547 5.63784 129.774 5.80365 130.029 5.84511L135.311 6.63274C135.968 6.72947 136.236 7.55857 135.754 8.0422L131.933 11.8837C131.745 12.0771 131.651 12.3535 131.705 12.616L132.603 18.0328C132.71 18.7099 132.027 19.2211 131.437 18.9033L126.718 16.3469C126.49 16.2226 126.208 16.2226 125.967 16.3469L121.248 18.9033C120.658 19.2211 119.974 18.7099 120.082 18.0328L120.98 12.616C121.02 12.3535 120.94 12.0771 120.752 11.8837L116.931 8.0422C116.449 7.55857 116.717 6.72947 117.374 6.63274L122.656 5.84511C122.91 5.80365 123.138 5.63784 123.259 5.38911L125.618 0.456001C125.913 -0.152 126.758 -0.152 127.053 0.456001H127.066Z" fill="#162425" fill-opacity="0.2"/>
<g clip-path="url(#clip0_693_5313)">
<path d="M10.3815 0.456001L12.741 5.38911C12.8616 5.63784 13.0895 5.80365 13.3443 5.84511L18.6263 6.63274C19.2832 6.72947 19.5514 7.55857 19.0687 8.0422L15.248 11.8837C15.0603 12.0771 14.9664 12.3535 15.02 12.616L15.9183 18.0328C16.0255 18.7099 15.3418 19.2211 14.7519 18.9033L10.0329 16.3469C9.80502 16.2226 9.52349 16.2226 9.28218 16.3469L4.56318 18.9033C3.97331 19.2211 3.28959 18.7099 3.39684 18.0328L4.29506 12.616C4.33528 12.3535 4.25484 12.0771 4.06715 11.8837L0.246377 8.0422C-0.236247 7.55857 0.0318775 6.72947 0.688783 6.63274L5.97084 5.84511C6.22556 5.80365 6.45346 5.63784 6.57412 5.38911L8.93362 0.456001C9.22855 -0.152 10.0731 -0.152 10.3681 0.456001H10.3815Z" fill="#164A49"/>
<path d="M33.7185 0.456001L36.078 5.38911C36.1986 5.63784 36.4265 5.80365 36.6812 5.84511L41.9633 6.63274C42.6202 6.72947 42.8883 7.55857 42.4057 8.0422L38.5849 11.8837C38.3972 12.0771 38.3034 12.3535 38.357 12.616L39.2552 18.0328C39.3625 18.7099 38.6788 19.2211 38.0889 18.9033L33.3699 16.3469C33.142 16.2226 32.8605 16.2226 32.6192 16.3469L27.9002 18.9033C27.3103 19.2211 26.6266 18.7099 26.7338 18.0328L27.632 12.616C27.6723 12.3535 27.5918 12.0771 27.4041 11.8837L23.5834 8.0422C23.1007 7.55857 23.3689 6.72947 24.0258 6.63274L29.3078 5.84511C29.5625 5.80365 29.7904 5.63784 29.9111 5.38911L32.2706 0.456001C32.5655 -0.152 33.4101 -0.152 33.7051 0.456001H33.7185Z" fill="#164A49"/>
<path d="M57.0554 0.456001L59.4149 5.38911C59.5356 5.63784 59.7635 5.80365 60.0182 5.84511L65.3003 6.63274C65.9572 6.72947 66.2253 7.55857 65.7427 8.0422L61.9219 11.8837C61.7342 12.0771 61.6404 12.3535 61.694 12.616L62.5922 18.0328C62.6995 18.7099 62.0157 19.2211 61.4259 18.9033L56.7069 16.3469C56.479 16.2226 56.1974 16.2226 55.9561 16.3469L51.2371 18.9033C50.6473 19.2211 49.9635 18.7099 50.0708 18.0328L50.969 12.616C51.0092 12.3535 50.9288 12.0771 50.7411 11.8837L46.9203 8.0422C46.4377 7.55857 46.7058 6.72947 47.3627 6.63274L52.6448 5.84511C52.8995 5.80365 53.1274 5.63784 53.2481 5.38911L55.6076 0.456001C55.9025 -0.152 56.7471 -0.152 57.042 0.456001H57.0554Z" fill="#164A49"/>
<path d="M80.3924 0.456001L82.7519 5.38911C82.8726 5.63784 83.1005 5.80365 83.3552 5.84511L88.6373 6.63274C89.2942 6.72947 89.5623 7.55857 89.0797 8.0422L85.2589 11.8837C85.0712 12.0771 84.9773 12.3535 85.031 12.616L85.9292 18.0328C86.0364 18.7099 85.3527 19.2211 84.7629 18.9033L80.0439 16.3469C79.8159 16.2226 79.5344 16.2226 79.2931 16.3469L74.5741 18.9033C73.9842 19.2211 73.3005 18.7099 73.4078 18.0328L74.306 12.616C74.3462 12.3535 74.2658 12.0771 74.0781 11.8837L70.2573 8.0422C69.7747 7.55857 70.0428 6.72947 70.6997 6.63274L75.9818 5.84511C76.2365 5.80365 76.4644 5.63784 76.5851 5.38911L78.9445 0.456001C79.2395 -0.152 80.0841 -0.152 80.379 0.456001H80.3924Z" fill="#164A49"/>
<path d="M103.729 0.456001L106.089 5.38911C106.21 5.63784 106.437 5.80365 106.692 5.84511L111.974 6.63274C112.631 6.72947 112.899 7.55857 112.417 8.0422L108.596 11.8837C108.408 12.0771 108.314 12.3535 108.368 12.616L109.266 18.0328C109.373 18.7099 108.69 19.2211 108.1 18.9033L103.381 16.3469C103.153 16.2226 102.871 16.2226 102.63 16.3469L97.9111 18.9033C97.3212 19.2211 96.6375 18.7099 96.7448 18.0328L97.643 12.616C97.6832 12.3535 97.6028 12.0771 97.4151 11.8837L93.5943 8.0422C93.1117 7.55857 93.3798 6.72947 94.0367 6.63274L99.3187 5.84511C99.5735 5.80365 99.8014 5.63784 99.922 5.38911L102.282 0.456001C102.576 -0.152 103.421 -0.152 103.716 0.456001H103.729Z" fill="#164A49"/>
<path d="M127.066 0.456001L129.426 5.38911C129.547 5.63784 129.774 5.80365 130.029 5.84511L135.311 6.63274C135.968 6.72947 136.236 7.55857 135.754 8.0422L131.933 11.8837C131.745 12.0771 131.651 12.3535 131.705 12.616L132.603 18.0328C132.71 18.7099 132.027 19.2211 131.437 18.9033L126.718 16.3469C126.49 16.2226 126.208 16.2226 125.967 16.3469L121.248 18.9033C120.658 19.2211 119.974 18.7099 120.082 18.0328L120.98 12.616C121.02 12.3535 120.94 12.0771 120.752 11.8837L116.931 8.0422C116.449 7.55857 116.717 6.72947 117.374 6.63274L122.656 5.84511C122.91 5.80365 123.138 5.63784 123.259 5.38911L125.618 0.456001C125.913 -0.152 126.758 -0.152 127.053 0.456001H127.066Z" fill="#164A49"/>
</g>
<defs>
<clipPath id="clip0_693_5313">
<rect width="103" height="19" fill="white"/>
</clipPath>
</defs>
</svg>
