<svg width="264" height="264" viewBox="0 0 264 264" fill="none" xmlns="http://www.w3.org/2000/svg">
<path d="M2 0H6V8H2V0Z" fill="white"/>
<path d="M8 2V6L0 6L1.74846e-07 2L8 2Z" fill="white"/>
<path d="M87.334 0H91.334V8H87.334V0Z" fill="white"/>
<path d="M93.334 2V6L85.334 6L85.334 2L93.334 2Z" fill="white"/>
<path d="M172.666 0H176.666V8H172.666V0Z" fill="white"/>
<path d="M178.666 2V6L170.666 6L170.666 2L178.666 2Z" fill="white"/>
<path d="M258 0H262V8H258V0Z" fill="white"/>
<path d="M264 2V6L256 6L256 2L264 2Z" fill="white"/>
<path d="M2 256H6V264H2V256Z" fill="white"/>
<path d="M8 258V262L0 262L1.74846e-07 258L8 258Z" fill="white"/>
<path d="M87.334 256H91.334V264H87.334V256Z" fill="white"/>
<path d="M93.334 258V262L85.334 262L85.334 258L93.334 258Z" fill="white"/>
<path d="M172.666 256H176.666V264H172.666V256Z" fill="white"/>
<path d="M178.666 258V262L170.666 262L170.666 258L178.666 258Z" fill="white"/>
<path d="M258 256H262V264H258V256Z" fill="white"/>
<path d="M264 258V262L256 262L256 258L264 258Z" fill="white"/>
<path d="M-8.74228e-08 176.667L-2.62268e-07 172.667L8 172.667L8 176.667L-8.74228e-08 176.667Z" fill="white"/>
<path d="M2 170.667L6 170.667L6 178.667L2 178.667L2 170.667Z" fill="white"/>
<path d="M-8.74228e-08 91.3335L-2.62268e-07 87.3335L8 87.3335L8 91.3335L-8.74228e-08 91.3335Z" fill="white"/>
<path d="M2 85.3335L6 85.3335L6 93.3335L2 93.3335L2 85.3335Z" fill="white"/>
<path d="M256 176.667L256 172.667L264 172.667L264 176.667L256 176.667Z" fill="white"/>
<path d="M258 170.667L262 170.667L262 178.667L258 178.667L258 170.667Z" fill="white"/>
<path d="M256 91.3335L256 87.3335L264 87.3335L264 91.3335L256 91.3335Z" fill="white"/>
<path d="M258 85.3335L262 85.3335L262 93.3335L258 93.3335L258 85.3335Z" fill="white"/>
<rect x="91" y="68" width="82" height="128" stroke="white" stroke-width="2"/>
<rect x="2.5" y="2.5" width="259" height="259" stroke="white"/>
<g style="mix-blend-mode:screen" opacity="0.8">
<path d="M174 197V132H203.591H261V261H112V197H174Z" fill="#5178E1"/>
</g>
<path d="M174.304 212.082H171V210.85H179.036V212.082H175.732V221H174.304V212.082ZM179.78 217.654C179.836 219.278 180.984 220.062 182.104 220.062C183.224 220.062 183.84 219.558 184.162 218.816H185.478C185.128 220.118 183.938 221.182 182.104 221.182C179.724 221.182 178.408 219.474 178.408 217.248C178.408 214.868 180.004 213.342 182.062 213.342C184.358 213.342 185.744 215.274 185.576 217.654H179.78ZM179.794 216.562H184.232C184.204 215.498 183.406 214.434 182.062 214.434C180.928 214.434 179.906 215.05 179.794 216.562ZM188.335 214.602C188.769 213.888 189.497 213.342 190.771 213.342C192.591 213.342 193.249 214.518 193.249 216.24V221H191.975V216.618C191.975 215.456 191.779 214.448 190.323 214.448C189.091 214.448 188.335 215.302 188.335 216.912V221H187.061V213.468H188.335V214.602ZM194.706 219.012C194.706 217.234 196.708 216.716 199.802 216.366V216.184C199.802 214.812 199.032 214.35 198.094 214.35C197.044 214.35 196.428 214.924 196.372 215.848H195.056C195.182 214.224 196.61 213.314 198.08 213.314C200.152 213.314 201.09 214.308 201.076 216.422L201.062 218.158C201.048 219.418 201.118 220.286 201.258 221H199.97C199.928 220.72 199.886 220.412 199.872 219.964C199.41 220.734 198.626 221.182 197.296 221.182C195.882 221.182 194.706 220.398 194.706 219.012ZM199.9 217.374C197.59 217.612 196.12 217.948 196.12 218.984C196.12 219.698 196.666 220.174 197.576 220.174C198.766 220.174 199.9 219.628 199.9 217.85V217.374ZM204.249 214.602C204.683 213.888 205.411 213.342 206.685 213.342C208.505 213.342 209.163 214.518 209.163 216.24V221H207.889V216.618C207.889 215.456 207.693 214.448 206.237 214.448C205.005 214.448 204.249 215.302 204.249 216.912V221H202.975V213.468H204.249V214.602ZM217.341 215.988H216.053C215.871 215.092 215.087 214.462 214.107 214.462C212.973 214.462 211.937 215.344 211.937 217.234C211.937 219.152 212.987 220.062 214.107 220.062C215.171 220.062 215.927 219.348 216.109 218.55H217.425C217.173 219.964 215.815 221.182 214.065 221.182C211.909 221.182 210.551 219.544 210.551 217.248C210.551 215.008 211.965 213.342 214.191 213.342C216.011 213.342 217.173 214.714 217.341 215.988ZM224.309 213.468L221.621 221.322C221.075 222.96 220.683 223.45 219.003 223.45H218.345V222.386H218.863C219.703 222.386 220.109 222.33 220.445 221.154L220.501 221L217.785 213.468H219.199L221.117 219.278L222.979 213.468H224.309ZM230.149 221V213.062H227.797V212.194C229.253 212.138 229.995 211.956 230.555 210.85H231.423V221H230.149ZM175.354 235.066L178.168 239H176.642L174.598 236.13L172.568 239H171.112L173.884 235.122L171.28 231.468H172.806L174.64 234.058L176.488 231.468H177.916L175.354 235.066ZM182.627 235.066L185.441 239H183.915L181.871 236.13L179.841 239H178.385L181.157 235.122L178.553 231.468H180.079L181.913 234.058L183.761 231.468H185.189L182.627 235.066ZM187.829 239H186.555V231.468H187.829V232.602C188.263 231.888 188.963 231.342 190.097 231.342C191.245 231.342 191.931 231.846 192.267 232.672C192.869 231.748 193.751 231.342 194.801 231.342C196.551 231.342 197.237 232.518 197.237 234.24V239H195.963V234.618C195.963 233.456 195.739 232.448 194.353 232.448C193.261 232.448 192.533 233.302 192.533 234.912V239H191.259V234.618C191.259 233.456 191.035 232.448 189.649 232.448C188.557 232.448 187.829 233.302 187.829 234.912V239ZM202.507 228.57C202.507 229.704 201.457 230.782 199.679 231.986H202.633V232.868H198.447V232.042C200.309 230.558 201.443 229.578 201.443 228.64C201.443 228.108 201.093 227.814 200.575 227.814C200.057 227.814 199.567 228.136 199.581 229.004H198.559C198.545 227.842 199.357 227.058 200.617 227.058C201.681 227.058 202.507 227.604 202.507 228.57Z" fill="white" fill-opacity="0.8"/>
</svg>
