<svg width="33" height="32" viewBox="0 0 33 32" fill="none" xmlns="http://www.w3.org/2000/svg">
<path d="M24.3492 24.665C24.1985 24.8776 23.9637 25 23.705 25H13.8628C14.1095 24.6198 14.1746 24.1598 14.029 23.7258L13.0849 20.8977C12.4834 19.0974 12.1793 17.2217 12.1793 15.3215V11.8262C12.1793 11.6908 12.1519 11.5623 12.1056 11.4434H14.0804V12.5761C13.5912 12.7315 13.2331 13.1898 13.2331 13.7358C13.2331 14.4085 13.7737 14.9562 14.4376 14.9562C15.1016 14.9562 15.6422 14.4085 15.6422 13.7358C15.6422 13.169 15.2567 12.6951 14.7384 12.5588V11.4443H19.9046V12.5683C19.4008 12.7142 19.029 13.1803 19.029 13.7367C19.029 14.4094 19.5696 14.9571 20.2335 14.9571C20.8975 14.9571 21.4381 14.4094 21.4381 13.7367C21.4381 13.1803 21.0663 12.7141 20.5625 12.5683V11.4443H21.8494C22.2486 11.4443 22.5724 11.7724 22.5724 12.1769V15.2843C22.5724 17.2824 22.8929 19.2545 23.5251 21.1477L24.4573 23.9391C24.5404 24.1874 24.501 24.4521 24.3502 24.6648L24.3492 24.665ZM19.686 13.7358C19.686 14.0413 19.931 14.2895 20.2326 14.2895C20.5341 14.2895 20.7792 14.0413 20.7792 13.7358C20.7792 13.4302 20.5341 13.182 20.2326 13.182C19.931 13.182 19.686 13.4302 19.686 13.7358ZM13.8901 13.7358C13.8901 14.0413 14.1351 14.2895 14.4367 14.2895C14.7383 14.2895 14.9833 14.0413 14.9833 13.7358C14.9833 13.4302 14.7383 13.182 14.4367 13.182C14.1351 13.182 13.8901 13.4302 13.8901 13.7358ZM12.4611 21.1111C11.8373 19.2423 11.5204 17.2945 11.5204 15.3215V11.8261C11.5204 11.6152 11.3507 11.4433 11.1425 11.4433H10.8221C10.6028 11.4433 10.4237 11.6238 10.4237 11.8469V15.2885C10.4237 17.2832 10.1042 19.2527 9.47447 21.1424L8.54234 23.9391C8.4601 24.1874 8.49865 24.4513 8.64943 24.6648C8.80022 24.8775 9.03496 24.9998 9.2937 24.9998H12.6538C12.9125 24.9998 13.1472 24.8775 13.298 24.6648C13.4488 24.4513 13.4882 24.1874 13.4051 23.9391L12.4611 21.1111ZM12.9811 7.39565C12.9811 6.44432 13.7487 5.66659 14.692 5.66659H14.8145C14.363 6.10232 14.0777 6.71515 14.0777 7.39565V10.7766H14.7357V7.39565C14.7357 6.44432 15.5033 5.66659 16.4423 5.66659C17.3856 5.66659 18.1489 6.44432 18.1489 7.39565V10.7766H18.8069V7.39565C18.8069 6.716 18.5216 6.10232 18.0701 5.66659H18.1969C19.1359 5.66659 19.9035 6.44432 19.9035 7.39565V10.7766H20.5615V7.39565C20.5615 6.07541 19.5 5 18.1969 5H14.6921C13.3847 5 12.3232 6.07545 12.3232 7.39565V10.7766H12.9812L12.9811 7.39565Z" fill="black" />
</svg>
